<svg width="19" height="19" viewBox="0 0 19 19" fill="none" xmlns="http://www.w3.org/2000/svg">
<path fill-rule="evenodd" clip-rule="evenodd" d="M7.771 1.40274C8.2803 1.05438 8.88296 0.867981 9.5 0.867981C10.117 0.867981 10.7197 1.05438 11.229 1.40274L16.9165 5.29474C17.3274 5.57583 17.6637 5.95287 17.896 6.3932C18.1284 6.83353 18.2499 7.32387 18.25 7.82174V15.1875C18.25 15.9997 17.9273 16.7787 17.353 17.353C16.7787 17.9273 15.9997 18.25 15.1875 18.25H3.8125C3.00027 18.25 2.22132 17.9273 1.64699 17.353C1.07266 16.7787 0.75 15.9997 0.75 15.1875V7.82174C0.75012 7.32387 0.871624 6.83353 1.10399 6.3932C1.33635 5.95287 1.67256 5.57583 2.0835 5.29474L7.771 1.40274ZM7.3125 14.3125C7.19647 14.3125 7.08519 14.3586 7.00314 14.4406C6.92109 14.5227 6.875 14.634 6.875 14.75C6.875 14.866 6.92109 14.9773 7.00314 15.0594C7.08519 15.1414 7.19647 15.1875 7.3125 15.1875H11.6875C11.8035 15.1875 11.9148 15.1414 11.9969 15.0594C12.0789 14.9773 12.125 14.866 12.125 14.75C12.125 14.634 12.0789 14.5227 11.9969 14.4406C11.9148 14.3586 11.8035 14.3125 11.6875 14.3125H7.3125Z" fill="#D1BEAB"/>
</svg>
