<svg width="177" height="53" viewBox="0 0 177 53" fill="none" xmlns="http://www.w3.org/2000/svg">
<path d="M0.35 36.825C0.746667 36.825 1.155 36.6617 1.575 36.335C1.995 36.0083 2.40333 35.355 2.8 34.375L11.725 12.5H12.46L21.035 34.375C21.4317 35.355 21.84 36.0083 22.26 36.335C22.68 36.6617 23.0883 36.825 23.485 36.825V37H16.94V36.825C17.3367 36.825 17.605 36.6617 17.745 36.335C17.885 36.0083 17.7567 35.355 17.36 34.375L15.435 29.475H5.18L3.185 34.375C2.78833 35.355 2.66 36.0083 2.8 36.335C2.94 36.6617 3.20833 36.825 3.605 36.825V37H0.35V36.825ZM15.295 29.125L10.43 16.665L5.32 29.125H15.295ZM24.8732 36.825C25.2699 36.825 25.6082 36.6617 25.8882 36.335C26.1682 36.0083 26.3082 35.355 26.3082 34.375V14.46L24.9432 12.675V12.5H28.8982L43.5282 31.61V15.125C43.5282 14.145 43.3882 13.4917 43.1082 13.165C42.8282 12.8383 42.4899 12.675 42.0932 12.675V12.5H45.3132V12.675C44.9166 12.675 44.5782 12.8383 44.2982 13.165C44.0182 13.4917 43.8782 14.145 43.8782 15.125V37H43.5282L26.6582 14.915V34.375C26.6582 35.355 26.7982 36.0083 27.0782 36.335C27.3582 36.6617 27.6966 36.825 28.0932 36.825V37H24.8732V36.825ZM46.6977 36.825C47.0943 36.825 47.5027 36.6617 47.9227 36.335C48.3427 36.0083 48.751 35.355 49.1477 34.375L58.0727 12.5H58.8077L67.3827 34.375C67.7793 35.355 68.1877 36.0083 68.6077 36.335C69.0277 36.6617 69.436 36.825 69.8327 36.825V37H63.2877V36.825C63.6843 36.825 63.9527 36.6617 64.0927 36.335C64.2327 36.0083 64.1043 35.355 63.7077 34.375L61.7827 29.475H51.5277L49.5327 34.375C49.136 35.355 49.0077 36.0083 49.1477 36.335C49.2877 36.6617 49.556 36.825 49.9527 36.825V37H46.6977V36.825ZM61.6427 29.125L56.7777 16.665L51.6677 29.125H61.6427ZM77.5909 12.5V12.675C77.1942 12.675 76.8559 12.8383 76.5759 13.165C76.2959 13.4917 76.1559 14.145 76.1559 15.125V36.65H81.6509C82.1176 36.65 82.6776 36.58 83.3309 36.44C83.9842 36.3 84.6492 36.09 85.3259 35.81C86.0259 35.5067 86.7026 35.11 87.3559 34.62C88.0326 34.13 88.6159 33.5233 89.1059 32.8L88.0559 37H71.2209V36.825C71.6176 36.825 71.9559 36.6617 72.2359 36.335C72.5159 36.0083 72.6559 35.355 72.6559 34.375V15.125C72.6559 14.145 72.5159 13.4917 72.2359 13.165C71.9559 12.8383 71.6176 12.675 71.2209 12.675V12.5H77.5909ZM83.5092 12.675V12.5H90.1942V12.675C89.7975 12.675 89.5292 12.7683 89.3892 12.955C89.2492 13.1417 89.3775 13.55 89.7742 14.18L96.7392 25.205L103.809 14.18C104.206 13.55 104.334 13.1417 104.194 12.955C104.054 12.7683 103.786 12.675 103.389 12.675V12.5H106.644V12.675C106.248 12.675 105.839 12.7683 105.419 12.955C104.999 13.1417 104.591 13.55 104.194 14.18L96.8442 25.66V34.375C96.8442 35.355 96.9842 36.0083 97.2642 36.335C97.5442 36.6617 97.8825 36.825 98.2792 36.825V37H91.9092V36.825C92.3058 36.825 92.6442 36.6617 92.9242 36.335C93.2042 36.0083 93.3442 35.355 93.3442 34.375V25.835L85.9592 14.18C85.5625 13.55 85.1542 13.1417 84.7342 12.955C84.3142 12.7683 83.9058 12.675 83.5092 12.675ZM108.382 12.5H127.947L128.997 18.1C128.507 17.3767 127.959 16.7 127.352 16.07C126.769 15.4167 126.151 14.8567 125.497 14.39C124.844 13.9233 124.179 13.55 123.502 13.27C122.849 12.99 122.196 12.85 121.542 12.85H119.897V34.375C119.897 35.355 120.037 36.0083 120.317 36.335C120.597 36.6617 120.936 36.825 121.332 36.825V37H114.962V36.825C115.359 36.825 115.697 36.6617 115.977 36.335C116.257 36.0083 116.397 35.355 116.397 34.375V12.85H114.787C114.321 12.85 113.761 12.955 113.107 13.165C112.454 13.3517 111.777 13.6433 111.077 14.04C110.401 14.4133 109.724 14.8917 109.047 15.475C108.394 16.035 107.822 16.6767 107.332 17.4L108.382 12.5ZM136.756 12.5V12.675C136.359 12.675 136.021 12.8383 135.741 13.165C135.461 13.4917 135.321 14.145 135.321 15.125V34.375C135.321 35.355 135.461 36.0083 135.741 36.335C136.021 36.6617 136.359 36.825 136.756 36.825V37H130.386V36.825C130.783 36.825 131.121 36.6617 131.401 36.335C131.681 36.0083 131.821 35.355 131.821 34.375V15.125C131.821 14.145 131.681 13.4917 131.401 13.165C131.121 12.8383 130.783 12.675 130.386 12.675V12.5H136.756ZM150.133 12.08C150.553 12.08 151.019 12.1033 151.533 12.15C152.069 12.1967 152.629 12.29 153.213 12.43C153.819 12.57 154.438 12.78 155.068 13.06C155.721 13.3167 156.363 13.6783 156.993 14.145L156.223 15.405C155.873 15.9883 155.464 16.28 154.998 16.28C154.578 16.28 154.158 16.0233 153.738 15.51C153.458 15.16 153.131 14.8217 152.758 14.495C152.384 14.1683 151.964 13.8883 151.498 13.655C151.031 13.3983 150.518 13.2 149.958 13.06C149.398 12.8967 148.768 12.815 148.068 12.815C146.738 12.8383 145.618 13.1883 144.708 13.865C143.821 14.5183 143.121 15.3817 142.608 16.455C142.118 17.5283 141.803 18.7533 141.663 20.13C141.546 21.4833 141.604 22.8717 141.838 24.295C142.071 25.7183 142.468 27.1183 143.028 28.495C143.588 29.8483 144.288 31.0617 145.128 32.135C145.991 33.185 146.994 34.0367 148.138 34.69C149.304 35.3433 150.588 35.67 151.988 35.67C153.318 35.67 154.519 35.39 155.593 34.83C156.689 34.2467 157.658 33.5 158.498 32.59L158.708 32.8C157.541 34.3633 156.153 35.5183 154.543 36.265C152.933 36.9883 151.206 37.35 149.363 37.35C147.613 37.35 146.061 36.9883 144.708 36.265C143.378 35.5417 142.258 34.585 141.348 33.395C140.438 32.205 139.738 30.8633 139.248 29.37C138.781 27.8533 138.536 26.3017 138.513 24.715C138.489 23.1283 138.711 21.5883 139.178 20.095C139.644 18.5783 140.356 17.225 141.313 16.035C142.269 14.845 143.471 13.8883 144.918 13.165C146.388 12.4417 148.126 12.08 150.133 12.08ZM159.571 32.835C159.921 32.2517 160.318 31.96 160.761 31.96C161.181 31.96 161.578 32.24 161.951 32.8C162.278 33.2667 162.651 33.745 163.071 34.235C163.491 34.725 163.946 35.1683 164.436 35.565C164.95 35.9617 165.51 36.2883 166.116 36.545C166.723 36.8017 167.365 36.93 168.041 36.93C168.508 36.93 169.01 36.8367 169.546 36.65C170.106 36.4633 170.62 36.1833 171.086 35.81C171.553 35.4367 171.938 34.97 172.241 34.41C172.568 33.85 172.731 33.2083 172.731 32.485C172.731 31.2717 172.405 30.2683 171.751 29.475C171.121 28.6583 170.316 27.9583 169.336 27.375C168.38 26.7683 167.33 26.2083 166.186 25.695C165.043 25.1817 163.981 24.6217 163.001 24.015C162.045 23.385 161.24 22.65 160.586 21.81C159.933 20.97 159.606 19.92 159.606 18.66C159.606 17.4233 159.863 16.3967 160.376 15.58C160.913 14.74 161.59 14.075 162.406 13.585C163.223 13.0717 164.121 12.71 165.101 12.5C166.105 12.29 167.085 12.1733 168.041 12.15C169.441 12.1033 170.841 12.255 172.241 12.605C173.641 12.9317 174.831 13.48 175.811 14.25L175.076 15.51C174.703 16.0933 174.318 16.385 173.921 16.385C173.525 16.385 173.128 16.1167 172.731 15.58C172.451 15.2067 172.136 14.845 171.786 14.495C171.436 14.1217 171.04 13.795 170.596 13.515C170.153 13.235 169.651 13.0133 169.091 12.85C168.555 12.6633 167.96 12.57 167.306 12.57C166.84 12.57 166.35 12.6633 165.836 12.85C165.346 13.0367 164.891 13.3167 164.471 13.69C164.075 14.0633 163.736 14.53 163.456 15.09C163.2 15.65 163.071 16.2917 163.071 17.015C163.071 18.1817 163.386 19.1617 164.016 19.955C164.67 20.725 165.475 21.4017 166.431 21.985C167.411 22.5683 168.461 23.1167 169.581 23.63C170.701 24.12 171.74 24.68 172.696 25.31C173.676 25.9167 174.493 26.6517 175.146 27.515C175.8 28.355 176.126 29.4167 176.126 30.7C176.126 31.9133 175.846 32.94 175.286 33.78C174.75 34.62 174.038 35.3083 173.151 35.845C172.265 36.3583 171.261 36.7433 170.141 37C169.045 37.2333 167.948 37.35 166.851 37.35C166.151 37.35 165.405 37.2917 164.611 37.175C163.841 37.0583 163.083 36.8833 162.336 36.65C161.59 36.3933 160.901 36.0667 160.271 35.67C159.641 35.2733 159.116 34.8067 158.696 34.27L159.571 32.835Z" fill="#636457"/>
</svg>
