<svg width="173" height="26" viewBox="0 0 173 26" fill="none" xmlns="http://www.w3.org/2000/svg">
<path d="M12.32 0.0799996C12.74 0.0799996 13.2067 0.103333 13.72 0.149999C14.2567 0.196666 14.8167 0.29 15.4 0.429999C16.0067 0.569999 16.625 0.779999 17.255 1.06C17.9083 1.31667 18.55 1.67833 19.18 2.145L18.41 3.405C18.06 3.98833 17.6517 4.28 17.185 4.28C16.765 4.28 16.345 4.02333 15.925 3.51C15.645 3.16 15.3183 2.82167 14.945 2.495C14.5717 2.16833 14.1517 1.88833 13.685 1.655C13.2183 1.39833 12.705 1.2 12.145 1.06C11.585 0.896665 10.955 0.814998 10.255 0.814998C8.925 0.838331 7.805 1.18833 6.895 1.865C6.00833 2.51833 5.30833 3.38167 4.795 4.455C4.305 5.52833 3.99 6.75333 3.85 8.13C3.73333 9.48333 3.79167 10.8717 4.025 12.295C4.25833 13.7183 4.655 15.1183 5.215 16.495C5.775 17.8483 6.475 19.0617 7.315 20.135C8.17833 21.185 9.18167 22.0367 10.325 22.69C11.4917 23.3433 12.775 23.67 14.175 23.67C15.505 23.67 16.7067 23.39 17.78 22.83C18.8767 22.2467 19.845 21.5 20.685 20.59L20.895 20.8C19.7283 22.3633 18.34 23.5183 16.73 24.265C15.12 24.9883 13.3933 25.35 11.55 25.35C9.8 25.35 8.24833 24.9883 6.895 24.265C5.565 23.5417 4.445 22.585 3.535 21.395C2.625 20.205 1.925 18.8633 1.435 17.37C0.968333 15.8533 0.723333 14.3017 0.7 12.715C0.676667 11.1283 0.898333 9.58833 1.365 8.095C1.83167 6.57833 2.54333 5.225 3.5 4.035C4.45667 2.845 5.65833 1.88833 7.105 1.165C8.575 0.441666 10.3133 0.0799996 12.32 0.0799996ZM21.2338 24.825C21.6305 24.825 22.0388 24.6617 22.4588 24.335C22.8788 24.0083 23.2871 23.355 23.6838 22.375L32.6088 0.499998H33.3438L41.9188 22.375C42.3155 23.355 42.7238 24.0083 43.1438 24.335C43.5638 24.6617 43.9721 24.825 44.3688 24.825V25H37.8238V24.825C38.2205 24.825 38.4888 24.6617 38.6288 24.335C38.7688 24.0083 38.6405 23.355 38.2438 22.375L36.3188 17.475H26.0638L24.0688 22.375C23.6721 23.355 23.5438 24.0083 23.6838 24.335C23.8238 24.6617 24.0921 24.825 24.4888 24.825V25H21.2338V24.825ZM36.1788 17.125L31.3138 4.665L26.2038 17.125H36.1788ZM52.127 0.499998V0.674998C51.7304 0.674998 51.392 0.838331 51.112 1.165C50.832 1.49166 50.692 2.145 50.692 3.125V24.65H56.187C56.6537 24.65 57.2137 24.58 57.867 24.44C58.5204 24.3 59.1854 24.09 59.862 23.81C60.562 23.5067 61.2387 23.11 61.892 22.62C62.5687 22.13 63.152 21.5233 63.642 20.8L62.592 25H45.757V24.825C46.1537 24.825 46.492 24.6617 46.772 24.335C47.052 24.0083 47.192 23.355 47.192 22.375V3.125C47.192 2.145 47.052 1.49166 46.772 1.165C46.492 0.838331 46.1537 0.674998 45.757 0.674998V0.499998H52.127ZM81.8694 0.499998L82.9194 4.7C82.4294 3.97667 81.846 3.37 81.1694 2.88C80.516 2.39 79.8394 1.99333 79.1394 1.69C78.4627 1.38667 77.7977 1.17667 77.1444 1.06C76.491 0.919998 75.931 0.849998 75.4644 0.849998H69.9694V11.175H74.9394C75.4294 11.175 75.826 11.105 76.1294 10.965C76.456 10.825 76.7127 10.6733 76.8994 10.51C77.086 10.3233 77.2144 10.16 77.2844 10.02C77.3544 9.85667 77.3894 9.76333 77.3894 9.74H77.5644V12.96H77.3894C77.3894 12.9367 77.3544 12.855 77.2844 12.715C77.2144 12.5517 77.086 12.3883 76.8994 12.225C76.7127 12.0383 76.456 11.875 76.1294 11.735C75.826 11.595 75.4294 11.525 74.9394 11.525H69.9694V24.65H75.4644C75.931 24.65 76.491 24.58 77.1444 24.44C77.7977 24.3 78.4627 24.09 79.1394 23.81C79.8394 23.5067 80.516 23.11 81.1694 22.62C81.846 22.13 82.4294 21.5233 82.9194 20.8L81.8694 25H65.0344V24.825C65.431 24.825 65.7694 24.6617 66.0494 24.335C66.3294 24.0083 66.4694 23.355 66.4694 22.375V3.125C66.4694 2.145 66.3294 1.49166 66.0494 1.165C65.7694 0.838331 65.431 0.674998 65.0344 0.674998V0.499998H81.8694ZM84.3117 24.825C84.7084 24.825 85.0467 24.6617 85.3267 24.335C85.6067 24.0083 85.7467 23.355 85.7467 22.375V2.46L84.3817 0.674998V0.499998H88.3367L102.967 19.61V3.125C102.967 2.145 102.827 1.49166 102.547 1.165C102.267 0.838331 101.928 0.674998 101.532 0.674998V0.499998H104.752V0.674998C104.355 0.674998 104.017 0.838331 103.737 1.165C103.457 1.49166 103.317 2.145 103.317 3.125V25H102.967L86.0967 2.915V22.375C86.0967 23.355 86.2367 24.0083 86.5167 24.335C86.7967 24.6617 87.1351 24.825 87.5317 24.825V25H84.3117V24.825ZM106.836 0.499998H117.966C119.786 0.499998 121.361 0.849999 122.691 1.55C124.044 2.25 125.153 3.17167 126.016 4.315C126.879 5.45833 127.498 6.765 127.871 8.235C128.268 9.705 128.419 11.21 128.326 12.75C128.256 14.2667 127.941 15.76 127.381 17.23C126.821 18.7 126.028 20.0067 125.001 21.15C123.998 22.2933 122.761 23.2267 121.291 23.95C119.821 24.65 118.129 25 116.216 25H106.836V24.825C107.233 24.825 107.571 24.6617 107.851 24.335C108.131 24.0083 108.271 23.355 108.271 22.375V3.125C108.271 2.145 108.131 1.49166 107.851 1.165C107.571 0.838331 107.233 0.674998 106.836 0.674998V0.499998ZM111.771 21.675C111.771 22.165 111.841 22.5967 111.981 22.97C112.121 23.3433 112.296 23.6583 112.506 23.915C112.716 24.1483 112.938 24.335 113.171 24.475C113.428 24.5917 113.661 24.65 113.871 24.65H116.636C118.223 24.65 119.564 24.3117 120.661 23.635C121.781 22.935 122.679 22.0367 123.356 20.94C124.033 19.82 124.499 18.5483 124.756 17.125C125.036 15.6783 125.118 14.22 125.001 12.75C124.884 11.2567 124.593 9.79833 124.126 8.375C123.659 6.95167 123.029 5.68 122.236 4.56C121.466 3.44 120.533 2.54167 119.436 1.865C118.363 1.18833 117.161 0.849998 115.831 0.849998H111.771V21.675ZM128.011 24.825C128.408 24.825 128.816 24.6617 129.236 24.335C129.656 24.0083 130.064 23.355 130.461 22.375L139.386 0.499998H140.121L148.696 22.375C149.093 23.355 149.501 24.0083 149.921 24.335C150.341 24.6617 150.749 24.825 151.146 24.825V25H144.601V24.825C144.998 24.825 145.266 24.6617 145.406 24.335C145.546 24.0083 145.418 23.355 145.021 22.375L143.096 17.475H132.841L130.846 22.375C130.449 23.355 130.321 24.0083 130.461 24.335C130.601 24.6617 130.869 24.825 131.266 24.825V25H128.011V24.825ZM142.956 17.125L138.091 4.665L132.981 17.125H142.956ZM152.534 0.499998H162.579C164.399 0.499998 165.916 0.768332 167.129 1.305C168.366 1.81833 169.299 2.48333 169.929 3.3C170.559 4.11667 170.898 5.015 170.944 5.995C170.991 6.95167 170.746 7.885 170.209 8.795C169.696 9.68167 168.879 10.475 167.759 11.175C166.663 11.875 165.286 12.3533 163.629 12.61L169.614 22.375C170.221 23.3783 170.758 24.0433 171.224 24.37C171.714 24.6733 172.158 24.825 172.554 24.825V25H165.974V24.825C166.184 24.825 166.348 24.79 166.464 24.72C166.604 24.65 166.674 24.5217 166.674 24.335C166.698 24.1483 166.651 23.9033 166.534 23.6C166.418 23.2733 166.208 22.865 165.904 22.375L160.059 12.82H157.469V22.375C157.469 23.355 157.609 24.0083 157.889 24.335C158.169 24.6617 158.508 24.825 158.904 24.825V25H152.534V24.825C152.931 24.825 153.269 24.6617 153.549 24.335C153.829 24.0083 153.969 23.355 153.969 22.375V3.125C153.969 2.145 153.829 1.49166 153.549 1.165C153.269 0.838331 152.931 0.674998 152.534 0.674998V0.499998ZM157.469 12.47H161.424C163.058 12.4467 164.364 12.155 165.344 11.595C166.324 11.0117 167.013 10.2883 167.409 9.425C167.806 8.56167 167.934 7.62833 167.794 6.625C167.678 5.62167 167.316 4.7 166.709 3.86C166.126 2.99667 165.321 2.285 164.294 1.725C163.291 1.14167 162.113 0.849998 160.759 0.849998H157.469V12.47Z" fill="#636457"/>
</svg>
