<svg width="208" height="26" viewBox="0 0 208 26" fill="none" xmlns="http://www.w3.org/2000/svg">
<path d="M12.32 0.0799996C12.74 0.0799996 13.2067 0.103333 13.72 0.149999C14.2567 0.196666 14.8167 0.29 15.4 0.429999C16.0067 0.569999 16.625 0.779999 17.255 1.06C17.9083 1.31667 18.55 1.67833 19.18 2.145L18.41 3.405C18.06 3.98833 17.6517 4.28 17.185 4.28C16.765 4.28 16.345 4.02333 15.925 3.51C15.645 3.16 15.3183 2.82167 14.945 2.495C14.5717 2.16833 14.1517 1.88833 13.685 1.655C13.2183 1.39833 12.705 1.2 12.145 1.06C11.585 0.896665 10.955 0.814998 10.255 0.814998C8.925 0.838331 7.805 1.18833 6.895 1.865C6.00833 2.51833 5.30833 3.38167 4.795 4.455C4.305 5.52833 3.99 6.75333 3.85 8.13C3.73333 9.48333 3.79167 10.8717 4.025 12.295C4.25833 13.7183 4.655 15.1183 5.215 16.495C5.775 17.8483 6.475 19.0617 7.315 20.135C8.17833 21.185 9.18167 22.0367 10.325 22.69C11.4917 23.3433 12.775 23.67 14.175 23.67C15.505 23.67 16.7067 23.39 17.78 22.83C18.8767 22.2467 19.845 21.5 20.685 20.59L20.895 20.8C19.7283 22.3633 18.34 23.5183 16.73 24.265C15.12 24.9883 13.3933 25.35 11.55 25.35C9.8 25.35 8.24833 24.9883 6.895 24.265C5.565 23.5417 4.445 22.585 3.535 21.395C2.625 20.205 1.925 18.8633 1.435 17.37C0.968333 15.8533 0.723333 14.3017 0.7 12.715C0.676667 11.1283 0.898333 9.58833 1.365 8.095C1.83167 6.57833 2.54333 5.225 3.5 4.035C4.45667 2.845 5.65833 1.88833 7.105 1.165C8.575 0.441666 10.3133 0.0799996 12.32 0.0799996ZM21.9338 0.499998H28.3038V0.674998C27.9071 0.674998 27.5688 0.838331 27.2888 1.165C27.0088 1.49166 26.8688 2.145 26.8688 3.125V11.875H38.6288V3.125C38.6288 2.145 38.4888 1.49166 38.2088 1.165C37.9288 0.838331 37.5905 0.674998 37.1938 0.674998V0.499998H43.5638V0.674998C43.1671 0.674998 42.8288 0.838331 42.5488 1.165C42.2688 1.49166 42.1288 2.145 42.1288 3.125V22.375C42.1288 23.355 42.2688 24.0083 42.5488 24.335C42.8288 24.6617 43.1671 24.825 43.5638 24.825V25H37.1938V24.825C37.5905 24.825 37.9288 24.6617 38.2088 24.335C38.4888 24.0083 38.6288 23.355 38.6288 22.375V12.225H26.8688V22.375C26.8688 23.355 27.0088 24.0083 27.2888 24.335C27.5688 24.6617 27.9071 24.825 28.3038 24.825V25H21.9338V24.825C22.3305 24.825 22.6688 24.6617 22.9488 24.335C23.2288 24.0083 23.3688 23.355 23.3688 22.375V3.125C23.3688 2.145 23.2288 1.49166 22.9488 1.165C22.6688 0.838331 22.3305 0.674998 21.9338 0.674998V0.499998ZM44.9545 24.825C45.3512 24.825 45.7595 24.6617 46.1795 24.335C46.5995 24.0083 47.0078 23.355 47.4045 22.375L56.3295 0.499998H57.0645L65.6395 22.375C66.0362 23.355 66.4445 24.0083 66.8645 24.335C67.2845 24.6617 67.6928 24.825 68.0895 24.825V25H61.5445V24.825C61.9412 24.825 62.2095 24.6617 62.3495 24.335C62.4895 24.0083 62.3612 23.355 61.9645 22.375L60.0395 17.475H49.7845L47.7895 22.375C47.3928 23.355 47.2645 24.0083 47.4045 24.335C47.5445 24.6617 47.8128 24.825 48.2095 24.825V25H44.9545V24.825ZM59.8995 17.125L55.0345 4.665L49.9245 17.125H59.8995ZM75.8477 0.499998V0.674998C75.4511 0.674998 75.1127 0.838331 74.8327 1.165C74.5527 1.49166 74.4127 2.145 74.4127 3.125V24.65H79.9077C80.3744 24.65 80.9344 24.58 81.5877 24.44C82.2411 24.3 82.9061 24.09 83.5827 23.81C84.2827 23.5067 84.9594 23.11 85.6127 22.62C86.2894 22.13 86.8727 21.5233 87.3627 20.8L86.3127 25H69.4777V24.825C69.8744 24.825 70.2127 24.6617 70.4927 24.335C70.7727 24.0083 70.9127 23.355 70.9127 22.375V3.125C70.9127 2.145 70.7727 1.49166 70.4927 1.165C70.2127 0.838331 69.8744 0.674998 69.4777 0.674998V0.499998H75.8477ZM95.1251 0.499998V0.674998C94.7284 0.674998 94.3901 0.838331 94.1101 1.165C93.8301 1.49166 93.6901 2.145 93.6901 3.125V24.65H99.1851C99.6517 24.65 100.212 24.58 100.865 24.44C101.518 24.3 102.183 24.09 102.86 23.81C103.56 23.5067 104.237 23.11 104.89 22.62C105.567 22.13 106.15 21.5233 106.64 20.8L105.59 25H88.7551V24.825C89.1517 24.825 89.4901 24.6617 89.7701 24.335C90.0501 24.0083 90.1901 23.355 90.1901 22.375V3.125C90.1901 2.145 90.0501 1.49166 89.7701 1.165C89.4901 0.838331 89.1517 0.674998 88.7551 0.674998V0.499998H95.1251ZM124.867 0.499998L125.917 4.7C125.427 3.97667 124.844 3.37 124.167 2.88C123.514 2.39 122.837 1.99333 122.137 1.69C121.461 1.38667 120.796 1.17667 120.142 1.06C119.489 0.919998 118.929 0.849998 118.462 0.849998H112.967V11.175H117.937C118.427 11.175 118.824 11.105 119.127 10.965C119.454 10.825 119.711 10.6733 119.897 10.51C120.084 10.3233 120.212 10.16 120.282 10.02C120.352 9.85667 120.387 9.76333 120.387 9.74H120.562V12.96H120.387C120.387 12.9367 120.352 12.855 120.282 12.715C120.212 12.5517 120.084 12.3883 119.897 12.225C119.711 12.0383 119.454 11.875 119.127 11.735C118.824 11.595 118.427 11.525 117.937 11.525H112.967V24.65H118.462C118.929 24.65 119.489 24.58 120.142 24.44C120.796 24.3 121.461 24.09 122.137 23.81C122.837 23.5067 123.514 23.11 124.167 22.62C124.844 22.13 125.427 21.5233 125.917 20.8L124.867 25H108.032V24.825C108.429 24.825 108.767 24.6617 109.047 24.335C109.327 24.0083 109.467 23.355 109.467 22.375V3.125C109.467 2.145 109.327 1.49166 109.047 1.165C108.767 0.838331 108.429 0.674998 108.032 0.674998V0.499998H124.867ZM127.31 24.825C127.706 24.825 128.045 24.6617 128.325 24.335C128.605 24.0083 128.745 23.355 128.745 22.375V2.46L127.38 0.674998V0.499998H131.335L145.965 19.61V3.125C145.965 2.145 145.825 1.49166 145.545 1.165C145.265 0.838331 144.926 0.674998 144.53 0.674998V0.499998H147.75V0.674998C147.353 0.674998 147.015 0.838331 146.735 1.165C146.455 1.49166 146.315 2.145 146.315 3.125V25H145.965L129.095 2.915V22.375C129.095 23.355 129.235 24.0083 129.515 24.335C129.795 24.6617 130.133 24.825 130.53 24.825V25H127.31V24.825ZM161.244 0.0799996C161.664 0.0799996 162.131 0.103333 162.644 0.149999C163.181 0.196666 163.741 0.29 164.324 0.429999C164.931 0.569999 165.549 0.779999 166.179 1.06C166.833 1.31667 167.474 1.67833 168.104 2.145L167.334 3.405C166.984 3.98833 166.576 4.28 166.109 4.28C165.689 4.28 165.269 4.02333 164.849 3.51C164.266 2.81 163.519 2.18 162.609 1.62C161.723 1.06 160.579 0.791665 159.179 0.814998C157.849 0.838331 156.729 1.2 155.819 1.9C154.933 2.57667 154.233 3.475 153.719 4.595C153.229 5.69167 152.914 6.95167 152.774 8.375C152.634 9.775 152.658 11.21 152.844 12.68C153.054 14.15 153.416 15.585 153.929 16.985C154.443 18.385 155.096 19.6333 155.889 20.73C156.683 21.8267 157.604 22.7133 158.654 23.39C159.704 24.0667 160.859 24.405 162.119 24.405C162.656 24.405 163.169 24.335 163.659 24.195C164.173 24.0317 164.663 23.8333 165.129 23.6L165.199 15.795C165.199 14.815 165.059 14.1617 164.779 13.835C164.499 13.5083 164.161 13.345 163.764 13.345H158.864V12.995H170.134V13.17C169.738 13.17 169.399 13.3333 169.119 13.66C168.839 13.9867 168.699 14.64 168.699 15.62V25H168.489L166.634 23.005C165.584 23.7983 164.453 24.3933 163.239 24.79C162.026 25.1633 160.754 25.35 159.424 25.35C157.814 25.35 156.379 24.9883 155.119 24.265C153.883 23.5417 152.844 22.585 152.004 21.395C151.164 20.205 150.534 18.8633 150.114 17.37C149.694 15.8533 149.484 14.3017 149.484 12.715C149.508 11.1283 149.753 9.58833 150.219 8.095C150.709 6.57833 151.433 5.225 152.389 4.035C153.369 2.845 154.583 1.88833 156.029 1.165C157.499 0.441666 159.238 0.0799996 161.244 0.0799996ZM188.715 0.499998L189.765 4.7C189.275 3.97667 188.692 3.37 188.015 2.88C187.362 2.39 186.685 1.99333 185.985 1.69C185.308 1.38667 184.643 1.17667 183.99 1.06C183.337 0.919998 182.777 0.849998 182.31 0.849998H176.815V11.175H181.785C182.275 11.175 182.672 11.105 182.975 10.965C183.302 10.825 183.558 10.6733 183.745 10.51C183.932 10.3233 184.06 10.16 184.13 10.02C184.2 9.85667 184.235 9.76333 184.235 9.74H184.41V12.96H184.235C184.235 12.9367 184.2 12.855 184.13 12.715C184.06 12.5517 183.932 12.3883 183.745 12.225C183.558 12.0383 183.302 11.875 182.975 11.735C182.672 11.595 182.275 11.525 181.785 11.525H176.815V24.65H182.31C182.777 24.65 183.337 24.58 183.99 24.44C184.643 24.3 185.308 24.09 185.985 23.81C186.685 23.5067 187.362 23.11 188.015 22.62C188.692 22.13 189.275 21.5233 189.765 20.8L188.715 25H171.88V24.825C172.277 24.825 172.615 24.6617 172.895 24.335C173.175 24.0083 173.315 23.355 173.315 22.375V3.125C173.315 2.145 173.175 1.49166 172.895 1.165C172.615 0.838331 172.277 0.674998 171.88 0.674998V0.499998H188.715ZM190.982 20.835C191.332 20.2517 191.729 19.96 192.172 19.96C192.592 19.96 192.989 20.24 193.362 20.8C193.689 21.2667 194.062 21.745 194.482 22.235C194.902 22.725 195.357 23.1683 195.847 23.565C196.361 23.9617 196.921 24.2883 197.527 24.545C198.134 24.8017 198.776 24.93 199.452 24.93C199.919 24.93 200.421 24.8367 200.957 24.65C201.517 24.4633 202.031 24.1833 202.497 23.81C202.964 23.4367 203.349 22.97 203.652 22.41C203.979 21.85 204.142 21.2083 204.142 20.485C204.142 19.2717 203.816 18.2683 203.162 17.475C202.532 16.6583 201.727 15.9583 200.747 15.375C199.791 14.7683 198.741 14.2083 197.597 13.695C196.454 13.1817 195.392 12.6217 194.412 12.015C193.456 11.385 192.651 10.65 191.997 9.81C191.344 8.97 191.017 7.92 191.017 6.66C191.017 5.42333 191.274 4.39667 191.787 3.58C192.324 2.74 193.001 2.075 193.817 1.585C194.634 1.07167 195.532 0.709998 196.512 0.499998C197.516 0.289998 198.496 0.173332 199.452 0.149999C200.852 0.103333 202.252 0.254999 203.652 0.604999C205.052 0.931666 206.242 1.48 207.222 2.25L206.487 3.51C206.114 4.09333 205.729 4.385 205.332 4.385C204.936 4.385 204.539 4.11667 204.142 3.58C203.862 3.20667 203.547 2.845 203.197 2.495C202.847 2.12167 202.451 1.795 202.007 1.515C201.564 1.235 201.062 1.01333 200.502 0.849998C199.966 0.663332 199.371 0.57 198.717 0.57C198.251 0.57 197.761 0.663332 197.247 0.849998C196.757 1.03667 196.302 1.31667 195.882 1.69C195.486 2.06333 195.147 2.53 194.867 3.09C194.611 3.65 194.482 4.29166 194.482 5.015C194.482 6.18167 194.797 7.16167 195.427 7.955C196.081 8.725 196.886 9.40167 197.842 9.985C198.822 10.5683 199.872 11.1167 200.992 11.63C202.112 12.12 203.151 12.68 204.107 13.31C205.087 13.9167 205.904 14.6517 206.557 15.515C207.211 16.355 207.537 17.4167 207.537 18.7C207.537 19.9133 207.257 20.94 206.697 21.78C206.161 22.62 205.449 23.3083 204.562 23.845C203.676 24.3583 202.672 24.7433 201.552 25C200.456 25.2333 199.359 25.35 198.262 25.35C197.562 25.35 196.816 25.2917 196.022 25.175C195.252 25.0583 194.494 24.8833 193.747 24.65C193.001 24.3933 192.312 24.0667 191.682 23.67C191.052 23.2733 190.527 22.8067 190.107 22.27L190.982 20.835Z" fill="#636457"/>
</svg>
