<svg width="45" height="45" viewBox="0 0 45 45" fill="none" xmlns="http://www.w3.org/2000/svg">
<mask id="mask0_47_1344" style="mask-type:luminance" maskUnits="userSpaceOnUse" x="6" y="0" width="34" height="45">
<path d="M6 0H39.6414V44.265H6V0Z" fill="white"/>
</mask>
<g mask="url(#mask0_47_1344)">
<path d="M23.4777 0.381204C23.1434 0.00771799 22.4978 0.00771799 22.1636 0.381204C21.5042 1.1155 6.03333 18.4595 6.03333 27.4774C6.03333 36.7338 13.5641 44.2647 22.8206 44.2647C32.0771 44.2647 39.6079 36.7338 39.6079 27.4774C39.6079 18.4595 24.1359 1.1155 23.4777 0.381204ZM22.8206 42.4975C14.5382 42.4975 7.80047 35.7598 7.80047 27.4774C3.75 35.25 20.5025 46.9386 23.4777 43.5C26.4529 46.9375 42.75 34.5 37.8408 27.4774C37.8408 35.7598 31.103 42.4975 22.8206 42.4975Z" fill="#D1BEAB"/>
</g>
<path d="M22.8206 35.4291C18.4368 35.4291 14.8691 31.8626 14.8691 27.4776C14.8691 26.9888 14.4725 26.5946 13.9849 26.5946C13.4973 26.5946 13.1019 26.9888 13.1019 27.4776C13.1019 32.8366 17.4616 37.1963 22.8206 37.1963C23.3082 37.1963 23.7036 36.802 23.7036 36.3133C23.7036 35.8245 23.3082 35.4291 22.8206 35.4291Z" fill="#171B1C"/>
</svg>
