<svg width="40" height="40" viewBox="0 0 40 40" fill="none" xmlns="http://www.w3.org/2000/svg">
<path d="M20 38.3333C16.374 38.3333 12.8295 37.2581 9.81457 35.2436C6.79967 33.2291 4.44984 30.3658 3.06224 27.0159C1.67463 23.6659 1.31157 19.9797 2.01897 16.4233C2.72636 12.867 4.47244 9.60034 7.0364 7.03637C9.60037 4.47241 12.8671 2.72633 16.4234 2.01893C19.9797 1.31154 23.6659 1.6746 27.0159 3.06221C30.3659 4.44981 33.2291 6.79964 35.2436 9.81454C37.2581 12.8294 38.3334 16.374 38.3334 20C38.3278 24.8606 36.3945 29.5206 32.9576 32.9575C29.5206 36.3945 24.8606 38.3278 20 38.3333Z" fill="#2F2F2F" fill-opacity="0.1"/>
<path d="M13.75 16.6667C15.3609 16.6667 16.6667 15.3608 16.6667 13.75C16.6667 12.1392 15.3609 10.8333 13.75 10.8333C12.1392 10.8333 10.8334 12.1392 10.8334 13.75C10.8334 15.3608 12.1392 16.6667 13.75 16.6667Z" fill="#5A5A5A"/>
<path d="M26.25 16.6667C27.8609 16.6667 29.1667 15.3608 29.1667 13.75C29.1667 12.1392 27.8609 10.8333 26.25 10.8333C24.6392 10.8333 23.3334 12.1392 23.3334 13.75C23.3334 15.3608 24.6392 16.6667 26.25 16.6667Z" fill="#5A5A5A"/>
<path d="M13.75 15.8333C14.9006 15.8333 15.8334 14.9006 15.8334 13.75C15.8334 12.5994 14.9006 11.6667 13.75 11.6667C12.5994 11.6667 11.6667 12.5994 11.6667 13.75C11.6667 14.9006 12.5994 15.8333 13.75 15.8333Z" fill="#5A5A5A"/>
<path d="M26.25 15.8333C27.4006 15.8333 28.3334 14.9006 28.3334 13.75C28.3334 12.5994 27.4006 11.6667 26.25 11.6667C25.0994 11.6667 24.1667 12.5994 24.1667 13.75C24.1667 14.9006 25.0994 15.8333 26.25 15.8333Z" fill="#5A5A5A"/>
<path d="M20 30.8333C13.4092 30.8333 10.4558 27 10.3333 26.8333C10.0722 26.4802 9.96097 26.0381 10.0239 25.6034C10.0869 25.1687 10.3189 24.7764 10.6696 24.5119C11.0202 24.2473 11.4612 24.1319 11.8965 24.1907C12.3318 24.2495 12.7263 24.4777 12.9942 24.8258C13.0758 24.9317 15.1083 27.5 20 27.5C24.86 27.5 26.9217 24.9342 27.0067 24.825C27.2754 24.4791 27.6695 24.2528 28.1038 24.1953C28.5381 24.1377 28.9775 24.2534 29.3271 24.5174C29.6767 24.7813 29.9083 25.1723 29.9719 25.6057C30.0354 26.0391 29.9258 26.4801 29.6667 26.8333C29.5442 27 26.5908 30.8333 20 30.8333Z" fill="#5A5A5A"/>
<path d="M20 30C13.8209 30 11.1125 26.4833 11 26.3333C10.8674 26.1565 10.8105 25.9343 10.8418 25.7155C10.873 25.4967 10.9899 25.2993 11.1667 25.1667C11.3435 25.0341 11.5658 24.9771 11.7846 25.0084C12.0034 25.0396 12.2008 25.1565 12.3334 25.3333C12.4334 25.4633 14.7059 28.3333 20 28.3333C25.355 28.3333 27.6442 25.3633 27.6667 25.3333C27.7324 25.2458 27.8146 25.172 27.9088 25.1163C28.003 25.0605 28.1072 25.0238 28.2155 25.0084C28.3239 24.9929 28.4342 24.9989 28.5402 25.0261C28.6462 25.0532 28.7458 25.101 28.8334 25.1667C28.9209 25.2323 28.9947 25.3146 29.0504 25.4088C29.1062 25.5029 29.1429 25.6071 29.1583 25.7155C29.1738 25.8238 29.1678 25.9341 29.1406 26.0401C29.1135 26.1462 29.0657 26.2458 29 26.3333C28.8875 26.4833 26.1792 30 20 30Z" fill="#5A5A5A"/>
</svg>
