<svg width="40" height="40" viewBox="0 0 40 40" fill="none" xmlns="http://www.w3.org/2000/svg">
<path d="M20 38.3333C16.374 38.3333 12.8294 37.2581 9.81451 35.2436C6.79961 33.2291 4.44978 30.3658 3.06218 27.0159C1.67457 23.6659 1.31151 19.9797 2.0189 16.4233C2.7263 12.867 4.47238 9.60034 7.03634 7.03637C9.6003 4.47241 12.867 2.72633 16.4233 2.01893C19.9796 1.31154 23.6658 1.6746 27.0158 3.06221C30.3658 4.44981 33.2291 6.79964 35.2436 9.81454C37.2581 12.8294 38.3333 16.374 38.3333 20C38.3278 24.8606 36.3945 29.5206 32.9575 32.9575C29.5205 36.3945 24.8606 38.3278 20 38.3333Z" fill="#2F2F2F" fill-opacity="0.1"/>
<path d="M20 31.6667C21.8409 31.6667 23.3333 29.9877 23.3333 27.9167C23.3333 25.8456 21.8409 24.1667 20 24.1667C18.159 24.1667 16.6666 25.8456 16.6666 27.9167C16.6666 29.9877 18.159 31.6667 20 31.6667Z" fill="#5A5A5A"/>
<path d="M9.16663 34.7875C10.6893 35.9048 12.376 36.7794 14.1666 37.38V13.3333H9.16663V34.7875Z" fill="#4FBBFF"/>
<path d="M25.8333 37.38C27.6239 36.7794 29.3106 35.9048 30.8333 34.7875V13.3333H25.8333V37.38Z" fill="#4FBBFF"/>
<path d="M20 30.8333C21.3807 30.8333 22.5 29.5275 22.5 27.9167C22.5 26.3058 21.3807 25 20 25C18.6193 25 17.5 26.3058 17.5 27.9167C17.5 29.5275 18.6193 30.8333 20 30.8333Z" fill="#2E3233"/>
<path d="M15.8333 14.1667H7.49996C7.27895 14.1667 7.06698 14.0789 6.9107 13.9226C6.75442 13.7663 6.66663 13.5543 6.66663 13.3333C6.66663 13.1123 6.75442 12.9004 6.9107 12.7441C7.06698 12.5878 7.27895 12.5 7.49996 12.5H15.8333C16.0543 12.5 16.2663 12.5878 16.4225 12.7441C16.5788 12.9004 16.6666 13.1123 16.6666 13.3333C16.6666 13.5543 16.5788 13.7663 16.4225 13.9226C16.2663 14.0789 16.0543 14.1667 15.8333 14.1667Z" fill="#5A5A5A"/>
<path d="M32.5 14.1667H24.1666C23.9456 14.1667 23.7337 14.0789 23.5774 13.9226C23.4211 13.7663 23.3333 13.5543 23.3333 13.3333C23.3333 13.1123 23.4211 12.9004 23.5774 12.7441C23.7337 12.5878 23.9456 12.5 24.1666 12.5H32.5C32.721 12.5 32.933 12.5878 33.0892 12.7441C33.2455 12.9004 33.3333 13.1123 33.3333 13.3333C33.3333 13.5543 33.2455 13.7663 33.0892 13.9226C32.933 14.0789 32.721 14.1667 32.5 14.1667Z" fill="#5A5A5A"/>
</svg>
