<svg width="40" height="40" viewBox="0 0 40 40" fill="none" xmlns="http://www.w3.org/2000/svg">
<path d="M20 38.3333C16.374 38.3333 12.8295 37.2581 9.81457 35.2436C6.79967 33.2291 4.44984 30.3658 3.06224 27.0159C1.67463 23.6659 1.31157 19.9797 2.01897 16.4233C2.72636 12.867 4.47244 9.60034 7.0364 7.03637C9.60037 4.47241 12.8671 2.72633 16.4234 2.01893C19.9797 1.31154 23.6659 1.6746 27.0159 3.06221C30.3659 4.44981 33.2291 6.79964 35.2436 9.81454C37.2581 12.8294 38.3334 16.374 38.3334 20C38.3278 24.8606 36.3945 29.5206 32.9576 32.9575C29.5206 36.3945 24.8606 38.3278 20 38.3333Z" fill="#2F2F2F" fill-opacity="0.1"/>
<path d="M13.75 16.6667C15.3609 16.6667 16.6667 15.3608 16.6667 13.75C16.6667 12.1392 15.3609 10.8333 13.75 10.8333C12.1392 10.8333 10.8334 12.1392 10.8334 13.75C10.8334 15.3608 12.1392 16.6667 13.75 16.6667Z" fill="#5A5A5A"/>
<path d="M26.25 16.6667C27.8609 16.6667 29.1667 15.3608 29.1667 13.75C29.1667 12.1392 27.8609 10.8333 26.25 10.8333C24.6392 10.8333 23.3334 12.1392 23.3334 13.75C23.3334 15.3608 24.6392 16.6667 26.25 16.6667Z" fill="#5A5A5A"/>
<path d="M13.75 15.8333C14.9006 15.8333 15.8334 14.9006 15.8334 13.75C15.8334 12.5994 14.9006 11.6667 13.75 11.6667C12.5994 11.6667 11.6667 12.5994 11.6667 13.75C11.6667 14.9006 12.5994 15.8333 13.75 15.8333Z" fill="#5A5A5A"/>
<path d="M26.25 15.8333C27.4006 15.8333 28.3334 14.9006 28.3334 13.75C28.3334 12.5994 27.4006 11.6667 26.25 11.6667C25.0994 11.6667 24.1667 12.5994 24.1667 13.75C24.1667 14.9006 25.0994 15.8333 26.25 15.8333Z" fill="#5A5A5A"/>
<path d="M20 23.3333C26.5908 23.3333 29.5442 27.1667 29.6667 27.3333C29.9279 27.6865 30.039 28.1285 29.9761 28.5632C29.9131 28.998 29.6811 29.3902 29.3304 29.6548C28.9798 29.9194 28.5389 30.0348 28.1035 29.976C27.6682 29.9172 27.2737 29.6889 27.0058 29.3408C26.9242 29.235 24.8917 26.6667 20 26.6667C15.14 26.6667 13.0783 29.2325 12.9933 29.3417C12.7246 29.6876 12.3305 29.9138 11.8962 29.9714C11.462 30.029 11.0225 29.9132 10.6729 29.6493C10.3233 29.3853 10.0917 28.9944 10.0281 28.561C9.96459 28.1275 10.0742 27.6865 10.3333 27.3333C10.4558 27.1667 13.4092 23.3333 20 23.3333Z" fill="#5A5A5A"/>
<path d="M20 24.1667C26.1792 24.1667 28.8875 27.6833 29 27.8333C29.1327 28.0101 29.1896 28.2324 29.1583 28.4512C29.1271 28.67 29.0102 28.8674 28.8334 29C28.6566 29.1326 28.4343 29.1895 28.2155 29.1583C27.9967 29.127 27.7993 29.0101 27.6667 28.8333C27.5667 28.7033 25.2942 25.8333 20 25.8333C14.645 25.8333 12.3559 28.8033 12.3334 28.8333C12.2008 29.0101 12.0034 29.127 11.7846 29.1583C11.5658 29.1895 11.3435 29.1326 11.1667 29C10.9899 28.8674 10.873 28.67 10.8418 28.4512C10.8105 28.2324 10.8674 28.0101 11 27.8333C11.1125 27.6833 13.8209 24.1667 20 24.1667Z" fill="#5A5A5A"/>
</svg>
