<svg width="40" height="40" viewBox="0 0 40 40" fill="none" xmlns="http://www.w3.org/2000/svg">
<path d="M20 38.3333C16.374 38.3333 12.8295 37.2581 9.81457 35.2436C6.79967 33.2291 4.44984 30.3658 3.06224 27.0159C1.67463 23.6659 1.31157 19.9797 2.01897 16.4233C2.72636 12.867 4.47244 9.60034 7.0364 7.03637C9.60037 4.47241 12.8671 2.72633 16.4234 2.01893C19.9797 1.31154 23.6659 1.6746 27.0159 3.06221C30.3659 4.44981 33.2291 6.79964 35.2436 9.81454C37.2581 12.8294 38.3334 16.374 38.3334 20C38.3278 24.8606 36.3945 29.5206 32.9576 32.9575C29.5206 36.3945 24.8606 38.3278 20 38.3333Z" fill="#2F2F2F" fill-opacity="0.1"/>
<path d="M13.75 16.6667C15.3609 16.6667 16.6667 15.3608 16.6667 13.75C16.6667 12.1392 15.3609 10.8333 13.75 10.8333C12.1392 10.8333 10.8334 12.1392 10.8334 13.75C10.8334 15.3608 12.1392 16.6667 13.75 16.6667Z" fill="#5A5A5A"/>
<path d="M26.25 16.6667C27.8609 16.6667 29.1667 15.3608 29.1667 13.75C29.1667 12.1392 27.8609 10.8333 26.25 10.8333C24.6392 10.8333 23.3334 12.1392 23.3334 13.75C23.3334 15.3608 24.6392 16.6667 26.25 16.6667Z" fill="#5A5A5A"/>
<path d="M13.75 15.8333C14.9006 15.8333 15.8334 14.9006 15.8334 13.75C15.8334 12.5994 14.9006 11.6667 13.75 11.6667C12.5994 11.6667 11.6667 12.5994 11.6667 13.75C11.6667 14.9006 12.5994 15.8333 13.75 15.8333Z" fill="#5A5A5A"/>
<path d="M26.25 15.8333C27.4006 15.8333 28.3334 14.9006 28.3334 13.75C28.3334 12.5994 27.4006 11.6667 26.25 11.6667C25.0994 11.6667 24.1667 12.5994 24.1667 13.75C24.1667 14.9006 25.0994 15.8333 26.25 15.8333Z" fill="#5A5A5A"/>
<path d="M12.5 28.3333C12.058 28.3333 11.6341 28.1577 11.3215 27.8452C11.009 27.5326 10.8334 27.1087 10.8334 26.6667C10.8334 26.2246 11.009 25.8007 11.3215 25.4882C11.6341 25.1756 12.058 25 12.5 25H27.5C27.9421 25 28.366 25.1756 28.6786 25.4882C28.9911 25.8007 29.1667 26.2246 29.1667 26.6667C29.1667 27.1087 28.9911 27.5326 28.6786 27.8452C28.366 28.1577 27.9421 28.3333 27.5 28.3333H12.5Z" fill="#5A5A5A"/>
<path d="M27.5 27.5H12.5C12.279 27.5 12.067 27.4122 11.9108 27.2559C11.7545 27.0996 11.6667 26.8877 11.6667 26.6667C11.6667 26.4456 11.7545 26.2337 11.9108 26.0774C12.067 25.9211 12.279 25.8333 12.5 25.8333H27.5C27.721 25.8333 27.933 25.9211 28.0893 26.0774C28.2456 26.2337 28.3334 26.4456 28.3334 26.6667C28.3334 26.8877 28.2456 27.0996 28.0893 27.2559C27.933 27.4122 27.721 27.5 27.5 27.5Z" fill="#5A5A5A"/>
</svg>
