<svg width="40" height="40" viewBox="0 0 40 40" fill="none" xmlns="http://www.w3.org/2000/svg">
<path d="M20 38.3333C16.374 38.3333 12.8295 37.2581 9.81457 35.2436C6.79967 33.2291 4.44984 30.3658 3.06224 27.0159C1.67463 23.6659 1.31157 19.9797 2.01897 16.4233C2.72636 12.867 4.47244 9.60034 7.0364 7.03637C9.60037 4.47241 12.8671 2.72633 16.4234 2.01893C19.9797 1.31154 23.6659 1.6746 27.0159 3.06221C30.3659 4.44981 33.2291 6.79964 35.2436 9.81454C37.2581 12.8294 38.3334 16.374 38.3334 20C38.3278 24.8606 36.3945 29.5206 32.9576 32.9575C29.5206 36.3945 24.8606 38.3278 20 38.3333Z" fill="#2F2F2F" fill-opacity="0.1"/>
<path d="M29.1667 15.8333C28.7247 15.8333 28.3008 15.6577 27.9882 15.3452C27.6757 15.0326 27.5001 14.6087 27.5001 14.1667C27.5001 13.9456 27.4123 13.7337 27.256 13.5774C27.0997 13.4211 26.8877 13.3333 26.6667 13.3333C26.4457 13.3333 26.2338 13.4211 26.0775 13.5774C25.9212 13.7337 25.8334 13.9456 25.8334 14.1667C25.8334 14.6087 25.6578 15.0326 25.3452 15.3452C25.0327 15.6577 24.6088 15.8333 24.1667 15.8333C23.7247 15.8333 23.3008 15.6577 22.9882 15.3452C22.6757 15.0326 22.5001 14.6087 22.5001 14.1667C22.5001 13.0616 22.939 12.0018 23.7204 11.2204C24.5019 10.439 25.5617 10 26.6667 10C27.7718 10 28.8316 10.439 29.613 11.2204C30.3944 12.0018 30.8334 13.0616 30.8334 14.1667C30.8334 14.6087 30.6578 15.0326 30.3452 15.3452C30.0327 15.6577 29.6088 15.8333 29.1667 15.8333Z" fill="#5A5A5A"/>
<path d="M15.8334 15.8333C15.3913 15.8333 14.9674 15.6577 14.6548 15.3452C14.3423 15.0326 14.1667 14.6087 14.1667 14.1667C14.1667 13.9456 14.0789 13.7337 13.9226 13.5774C13.7663 13.4211 13.5544 13.3333 13.3334 13.3333C13.1123 13.3333 12.9004 13.4211 12.7441 13.5774C12.5878 13.7337 12.5 13.9456 12.5 14.1667C12.5 14.6087 12.3244 15.0326 12.0119 15.3452C11.6993 15.6577 11.2754 15.8333 10.8334 15.8333C10.3913 15.8333 9.9674 15.6577 9.65484 15.3452C9.34228 15.0326 9.16669 14.6087 9.16669 14.1667C9.16669 13.0616 9.60567 12.0018 10.3871 11.2204C11.1685 10.439 12.2283 10 13.3334 10C14.4384 10 15.4982 10.439 16.2796 11.2204C17.061 12.0018 17.5 13.0616 17.5 14.1667C17.5 14.6087 17.3244 15.0326 17.0119 15.3452C16.6993 15.6577 16.2754 15.8333 15.8334 15.8333Z" fill="#5A5A5A"/>
<path d="M20 34.1667C13.5667 34.1667 8.33337 29.7183 8.33337 24.25L8.33921 24.135V23.3017L9.17254 23.3325H31.6617V24.1658C31.6656 24.1934 31.6673 24.2213 31.6667 24.2492C31.6667 29.7183 26.4334 34.1667 20 34.1667Z" fill="#5A5A5A"/>
<path d="M9.17169 24.1667C9.17169 24.195 9.16669 24.2225 9.16669 24.25C9.16669 29.2667 14.0167 33.3333 20 33.3333C25.9834 33.3333 30.8334 29.2667 30.8334 24.25C30.8334 24.2217 30.8284 24.1942 30.8284 24.1667H9.17169Z" fill="#5A5A5A"/>
<path d="M29.1667 15C28.9457 15 28.7337 14.9122 28.5775 14.7559C28.4212 14.5996 28.3334 14.3877 28.3334 14.1667C28.3334 13.7246 28.1578 13.3007 27.8452 12.9882C27.5327 12.6756 27.1087 12.5 26.6667 12.5C26.2247 12.5 25.8008 12.6756 25.4882 12.9882C25.1756 13.3007 25 13.7246 25 14.1667C25 14.3877 24.9122 14.5996 24.756 14.7559C24.5997 14.9122 24.3877 15 24.1667 15C23.9457 15 23.7337 14.9122 23.5775 14.7559C23.4212 14.5996 23.3334 14.3877 23.3334 14.1667C23.3334 13.2826 23.6846 12.4348 24.3097 11.8096C24.9348 11.1845 25.7827 10.8333 26.6667 10.8333C27.5508 10.8333 28.3986 11.1845 29.0237 11.8096C29.6488 12.4348 30 13.2826 30 14.1667C30 14.3877 29.9122 14.5996 29.756 14.7559C29.5997 14.9122 29.3877 15 29.1667 15Z" fill="#5A5A5A"/>
<path d="M15.8333 15C15.6123 15 15.4004 14.9122 15.2441 14.7559C15.0878 14.5996 15 14.3877 15 14.1667C15 13.7246 14.8244 13.3007 14.5118 12.9882C14.1993 12.6756 13.7754 12.5 13.3333 12.5C12.8913 12.5 12.4674 12.6756 12.1548 12.9882C11.8423 13.3007 11.6667 13.7246 11.6667 14.1667C11.6667 14.3877 11.5789 14.5996 11.4226 14.7559C11.2663 14.9122 11.0543 15 10.8333 15C10.6123 15 10.4004 14.9122 10.2441 14.7559C10.0878 14.5996 10 14.3877 10 14.1667C10 13.2826 10.3512 12.4348 10.9763 11.8096C11.6014 11.1845 12.4493 10.8333 13.3333 10.8333C14.2174 10.8333 15.0652 11.1845 15.6904 11.8096C16.3155 12.4348 16.6667 13.2826 16.6667 14.1667C16.6667 14.3877 16.5789 14.5996 16.4226 14.7559C16.2663 14.9122 16.0543 15 15.8333 15Z" fill="#5A5A5A"/>
<path d="M9.97919 23.3125C9.70834 23.5833 9.38679 23.7982 9.03291 23.9448C8.67903 24.0914 8.29973 24.1668 7.91669 24.1668C7.53365 24.1668 7.15436 24.0914 6.80048 23.9448C6.44659 23.7982 6.12504 23.5833 5.85419 23.3125C5.30718 22.7655 4.99988 22.0236 4.99988 21.25C4.99988 20.4764 5.30718 19.7345 5.85419 19.1875C6.99336 18.0483 11.1575 18.0092 11.1575 18.0092C11.1575 18.0092 11.1184 22.1733 9.97919 23.3125Z" fill="#4FBBFF"/>
<path d="M30.0209 23.3125C30.5679 23.8595 31.3098 24.1668 32.0834 24.1668C32.8569 24.1668 33.5989 23.8595 34.1459 23.3125C34.6929 22.7655 35.0002 22.0236 35.0002 21.25C35.0002 20.4764 34.6929 19.7345 34.1459 19.1875C33.0067 18.0483 28.8425 18.0092 28.8425 18.0092C28.8425 18.0092 28.8817 22.1733 30.0209 23.3125Z" fill="#4FBBFF"/>
</svg>
