<svg width="40" height="40" viewBox="0 0 40 40" fill="none" xmlns="http://www.w3.org/2000/svg">
<path d="M20 38.3333C16.374 38.3333 12.8295 37.2581 9.81457 35.2436C6.79967 33.2291 4.44984 30.3658 3.06224 27.0159C1.67463 23.6659 1.31157 19.9797 2.01897 16.4233C2.72636 12.867 4.47244 9.60034 7.0364 7.03637C9.60037 4.47241 12.8671 2.72633 16.4234 2.01893C19.9797 1.31154 23.6659 1.6746 27.0159 3.06221C30.3659 4.44981 33.2291 6.79964 35.2436 9.81454C37.2581 12.8294 38.3334 16.374 38.3334 20C38.3278 24.8606 36.3945 29.5206 32.9576 32.9575C29.5206 36.3945 24.8606 38.3278 20 38.3333Z" fill="#2F2F2F" fill-opacity="0.1"/>
<path d="M20 34.1667C14.0267 34.1667 9.16669 30.0883 9.16669 25.0767L9.17169 24.9658L9.23919 24.205L10.0042 24.1667H30.8292V25C30.8334 30.0883 25.9734 34.1667 20 34.1667Z" fill="#5A5A5A"/>
<path d="M27.5 20.8333C27.2646 20.833 27.0316 20.7851 26.8151 20.6926C26.5986 20.6001 26.403 20.4649 26.24 20.295L22.8184 16.7208C22.136 16.0226 21.7295 15.101 21.6739 14.1262C21.6183 13.1515 21.9173 12.1896 22.5159 11.4183C23.0921 10.6793 23.9285 10.1878 24.8546 10.044C25.7806 9.90012 26.7267 10.1148 27.5 10.6442C28.2733 10.1144 29.2195 9.8995 30.1457 10.0432C31.072 10.1869 31.9086 10.6784 32.485 11.4175C33.0836 12.1889 33.3827 13.151 33.3271 14.1258C33.2715 15.1007 32.8649 16.0224 32.1825 16.7208L28.7609 20.2942C28.5978 20.4643 28.4021 20.5997 28.1854 20.6924C27.9688 20.785 27.7357 20.833 27.5 20.8333Z" fill="#5A5A5A"/>
<path d="M12.5 20.8333C12.2646 20.833 12.0317 20.7851 11.8152 20.6926C11.5987 20.6001 11.4031 20.4649 11.24 20.295L7.81755 16.7208C7.13476 16.0225 6.72794 15.1005 6.67233 14.1254C6.61672 13.1503 6.91608 12.1881 7.51505 11.4167C8.09161 10.6777 8.92826 10.1863 9.8545 10.0428C10.7807 9.89928 11.7269 10.1143 12.5 10.6442C13.2733 10.1144 14.2195 9.8995 15.1458 10.0432C16.072 10.1869 16.9086 10.6784 17.485 11.4175C18.0836 12.1889 18.3827 13.151 18.3271 14.1258C18.2715 15.1007 17.865 16.0224 17.1825 16.7208L13.7609 20.2942C13.5978 20.4643 13.4021 20.5997 13.1855 20.6924C12.9688 20.785 12.7357 20.833 12.5 20.8333Z" fill="#5A5A5A"/>
<path d="M10.005 25C10.005 25.0258 10 25.0508 10 25.0767C10 29.6367 14.4775 33.3333 20 33.3333C25.5225 33.3333 30 29.6367 30 25.0767C30 25.0508 29.9958 25.0258 29.995 25H10.005Z" fill="#5A5A5A"/>
<path d="M27.2092 11.465C26.914 11.2273 26.5744 11.0508 26.2102 10.9459C25.846 10.8409 25.4645 10.8096 25.0881 10.8537C24.7116 10.8979 24.3478 11.0166 24.0177 11.203C23.6877 11.3893 23.3981 11.6396 23.1659 11.9392C22.6952 12.5535 22.4618 13.317 22.5085 14.0895C22.5552 14.862 22.8788 15.5918 23.4201 16.145L26.8417 19.7183C26.9267 19.8074 27.0289 19.8783 27.142 19.9267C27.2552 19.9751 27.377 20.0001 27.5001 20.0001C27.6231 20.0001 27.7449 19.9751 27.8581 19.9267C27.9713 19.8783 28.0734 19.8074 28.1584 19.7183L31.5834 16.145C32.1246 15.5918 32.4483 14.862 32.495 14.0895C32.5416 13.317 32.3082 12.5535 31.8376 11.9392C31.6053 11.6396 31.3158 11.3893 30.9857 11.203C30.6557 11.0166 30.2918 10.8979 29.9154 10.8537C29.5389 10.8096 29.1575 10.8409 28.7933 10.9459C28.4291 11.0508 28.0894 11.2273 27.7942 11.465C27.7118 11.5327 27.6084 11.5697 27.5017 11.5697C27.395 11.5697 27.2917 11.5327 27.2092 11.465Z" fill="#5A5A5A"/>
<path d="M12.2092 11.465C11.914 11.2273 11.5744 11.0508 11.2102 10.9459C10.846 10.8409 10.4645 10.8096 10.0881 10.8537C9.71163 10.8979 9.34777 11.0166 9.01773 11.203C8.68769 11.3893 8.39811 11.6396 8.16589 11.9392C7.69521 12.5535 7.4618 13.317 7.50849 14.0895C7.55517 14.862 7.87882 15.5918 8.42006 16.145L11.8417 19.7183C11.9267 19.8074 12.0289 19.8783 12.142 19.9267C12.2552 19.9751 12.377 20.0001 12.5001 20.0001C12.6231 20.0001 12.7449 19.9751 12.8581 19.9267C12.9713 19.8783 13.0734 19.8074 13.1584 19.7183L16.5834 16.145C17.1246 15.5918 17.4483 14.862 17.495 14.0895C17.5416 13.317 17.3082 12.5535 16.8376 11.9392C16.6053 11.6396 16.3158 11.3893 15.9857 11.203C15.6557 11.0166 15.2918 10.8979 14.9154 10.8537C14.5389 10.8096 14.1575 10.8409 13.7933 10.9459C13.4291 11.0508 13.0894 11.2273 12.7942 11.465C12.7118 11.5327 12.6084 11.5697 12.5017 11.5697C12.395 11.5697 12.2917 11.5327 12.2092 11.465Z" fill="#5A5A5A"/>
</svg>
