<svg width="34" height="45" viewBox="0 0 34 45" fill="none" xmlns="http://www.w3.org/2000/svg">
<mask id="mask0_47_1345" style="mask-type:luminance" maskUnits="userSpaceOnUse" x="0" y="0" width="34" height="45">
<path d="M0 0H33.6414V44.265H0V0Z" fill="white"/>
</mask>
<g mask="url(#mask0_47_1345)">
<path d="M17.4777 0.381204C17.1434 0.00771799 16.4978 0.00771799 16.1636 0.381204C15.5042 1.1155 0.0333252 18.4595 0.0333252 27.4774C0.0333252 36.7338 7.56415 44.2647 16.8206 44.2647C26.0771 44.2647 33.6079 36.7338 33.6079 27.4774C33.6079 18.4595 18.1359 1.1155 17.4777 0.381204ZM16.8206 42.4975C8.53821 42.4975 1.80047 35.7598 1.80047 27.4774C-2.25 35.25 14.5025 46.9386 17.4777 43.5C20.4529 46.9375 36.75 34.5 31.8408 27.4774C31.8408 35.7598 25.103 42.4975 16.8206 42.4975Z" fill="#D1BEAB"/>
</g>
<path d="M16.8206 35.4291C12.4368 35.4291 8.86907 31.8626 8.86907 27.4776C8.86907 26.9888 8.47253 26.5946 7.98492 26.5946C7.49732 26.5946 7.10193 26.9888 7.10193 27.4776C7.10193 32.8366 11.4616 37.1963 16.8206 37.1963C17.3082 37.1963 17.7036 36.802 17.7036 36.3133C17.7036 35.8245 17.3082 35.4291 16.8206 35.4291Z" fill="#171B1C"/>
</svg>
