<svg width="252" height="53" viewBox="0 0 252 53" fill="none" xmlns="http://www.w3.org/2000/svg">
<path d="M12.46 12.08C12.88 12.08 13.3467 12.1033 13.86 12.15C14.3967 12.1967 14.9567 12.29 15.54 12.43C16.1467 12.57 16.765 12.78 17.395 13.06C18.0483 13.3167 18.69 13.6783 19.32 14.145L18.55 15.405C18.2 15.9883 17.7917 16.28 17.325 16.28C16.905 16.28 16.485 16.0233 16.065 15.51C15.4817 14.81 14.735 14.18 13.825 13.62C12.9383 13.06 11.795 12.7917 10.395 12.815C9.065 12.8383 7.945 13.2 7.035 13.9C6.14833 14.5767 5.44833 15.475 4.935 16.595C4.445 17.6917 4.13 18.9517 3.99 20.375C3.85 21.775 3.87333 23.21 4.06 24.68C4.27 26.15 4.63167 27.585 5.145 28.985C5.65833 30.385 6.31167 31.6333 7.105 32.73C7.89833 33.8267 8.82 34.7133 9.87 35.39C10.92 36.0667 12.075 36.405 13.335 36.405C13.8717 36.405 14.385 36.335 14.875 36.195C15.3883 36.0317 15.8783 35.8333 16.345 35.6L16.415 27.795C16.415 26.815 16.275 26.1617 15.995 25.835C15.715 25.5083 15.3767 25.345 14.98 25.345H10.08V24.995H21.35V25.17C20.9533 25.17 20.615 25.3333 20.335 25.66C20.055 25.9867 19.915 26.64 19.915 27.62V37H19.705L17.85 35.005C16.8 35.7983 15.6683 36.3933 14.455 36.79C13.2417 37.1633 11.97 37.35 10.64 37.35C9.03 37.35 7.595 36.9883 6.335 36.265C5.09833 35.5417 4.06 34.585 3.22 33.395C2.38 32.205 1.75 30.8633 1.33 29.37C0.91 27.8533 0.7 26.3017 0.7 24.715C0.723333 23.1283 0.968333 21.5883 1.435 20.095C1.925 18.5783 2.64833 17.225 3.605 16.035C4.585 14.845 5.79833 13.8883 7.245 13.165C8.715 12.4417 10.4533 12.08 12.46 12.08ZM22.7459 24.365C22.7459 22.825 22.9792 21.32 23.4459 19.85C23.9359 18.38 24.6476 17.085 25.5809 15.965C26.5376 14.8217 27.7276 13.9 29.1509 13.2C30.5976 12.5 32.2892 12.15 34.2259 12.15C36.0226 12.15 37.6092 12.5233 38.9859 13.27C40.3626 14.0167 41.5176 14.9967 42.4509 16.21C43.4076 17.4233 44.1309 18.8 44.6209 20.34C45.1342 21.88 45.4026 23.455 45.4259 25.065C45.4492 26.605 45.2392 28.1217 44.7959 29.615C44.3759 31.085 43.6992 32.3917 42.7659 33.535C41.8559 34.6783 40.6892 35.6 39.2659 36.3C37.8426 37 36.1626 37.35 34.2259 37.35C32.3359 37.35 30.6676 36.9767 29.2209 36.23C27.7976 35.4833 26.6076 34.5033 25.6509 33.29C24.6942 32.0533 23.9709 30.665 23.4809 29.125C22.9909 27.5617 22.7459 25.975 22.7459 24.365ZM36.3609 36.545C37.4809 36.545 38.4376 36.335 39.2309 35.915C40.0242 35.4717 40.6776 34.8883 41.1909 34.165C41.7042 33.4183 42.0776 32.555 42.3109 31.575C42.5676 30.595 42.6959 29.545 42.6959 28.425C42.6959 27.2817 42.5792 26.115 42.3459 24.925C42.1126 23.7117 41.7742 22.5333 41.3309 21.39C40.9109 20.2467 40.3859 19.1733 39.7559 18.17C39.1259 17.1433 38.4142 16.245 37.6209 15.475C36.8276 14.705 35.9642 14.0983 35.0309 13.655C34.0976 13.2117 33.1176 12.99 32.0909 12.99C30.9942 12.99 30.0492 13.1883 29.2559 13.585C28.4626 13.9817 27.7976 14.53 27.2609 15.23C26.7476 15.9067 26.3509 16.7117 26.0709 17.645C25.8142 18.5783 25.6626 19.57 25.6159 20.62C25.5692 21.7633 25.6509 22.9533 25.8609 24.19C26.0942 25.4267 26.4209 26.64 26.8409 27.83C27.2842 28.9967 27.8209 30.105 28.4509 31.155C29.1042 32.205 29.8276 33.1383 30.6209 33.955C31.4376 34.7483 32.3242 35.3783 33.2809 35.845C34.2609 36.3117 35.2876 36.545 36.3609 36.545ZM46.8426 24.365C46.8426 22.825 47.0759 21.32 47.5426 19.85C48.0326 18.38 48.7442 17.085 49.6776 15.965C50.6342 14.8217 51.8242 13.9 53.2476 13.2C54.6942 12.5 56.3859 12.15 58.3226 12.15C60.1192 12.15 61.7059 12.5233 63.0826 13.27C64.4592 14.0167 65.6142 14.9967 66.5476 16.21C67.5042 17.4233 68.2276 18.8 68.7176 20.34C69.2309 21.88 69.4992 23.455 69.5226 25.065C69.5459 26.605 69.3359 28.1217 68.8926 29.615C68.4726 31.085 67.7959 32.3917 66.8626 33.535C65.9526 34.6783 64.7859 35.6 63.3626 36.3C61.9392 37 60.2592 37.35 58.3226 37.35C56.4326 37.35 54.7642 36.9767 53.3176 36.23C51.8942 35.4833 50.7042 34.5033 49.7476 33.29C48.7909 32.0533 48.0676 30.665 47.5776 29.125C47.0876 27.5617 46.8426 25.975 46.8426 24.365ZM60.4576 36.545C61.5776 36.545 62.5342 36.335 63.3276 35.915C64.1209 35.4717 64.7742 34.8883 65.2876 34.165C65.8009 33.4183 66.1742 32.555 66.4076 31.575C66.6642 30.595 66.7926 29.545 66.7926 28.425C66.7926 27.2817 66.6759 26.115 66.4426 24.925C66.2092 23.7117 65.8709 22.5333 65.4276 21.39C65.0076 20.2467 64.4826 19.1733 63.8526 18.17C63.2226 17.1433 62.5109 16.245 61.7176 15.475C60.9242 14.705 60.0609 14.0983 59.1276 13.655C58.1942 13.2117 57.2142 12.99 56.1876 12.99C55.0909 12.99 54.1459 13.1883 53.3526 13.585C52.5592 13.9817 51.8942 14.53 51.3576 15.23C50.8442 15.9067 50.4476 16.7117 50.1676 17.645C49.9109 18.5783 49.7592 19.57 49.7126 20.62C49.6659 21.7633 49.7476 22.9533 49.9576 24.19C50.1909 25.4267 50.5176 26.64 50.9376 27.83C51.3809 28.9967 51.9176 30.105 52.5476 31.155C53.2009 32.205 53.9242 33.1383 54.7176 33.955C55.5342 34.7483 56.4209 35.3783 57.3776 35.845C58.3576 36.3117 59.3842 36.545 60.4576 36.545ZM71.2893 12.5H82.4193C84.2393 12.5 85.8143 12.85 87.1443 13.55C88.4976 14.25 89.6059 15.1717 90.4693 16.315C91.3326 17.4583 91.9509 18.765 92.3243 20.235C92.7209 21.705 92.8726 23.21 92.7793 24.75C92.7093 26.2667 92.3943 27.76 91.8343 29.23C91.2743 30.7 90.4809 32.0067 89.4543 33.15C88.4509 34.2933 87.2143 35.2267 85.7443 35.95C84.2743 36.65 82.5826 37 80.6693 37H71.2893V36.825C71.6859 36.825 72.0243 36.6617 72.3043 36.335C72.5843 36.0083 72.7243 35.355 72.7243 34.375V15.125C72.7243 14.145 72.5843 13.4917 72.3043 13.165C72.0243 12.8383 71.6859 12.675 71.2893 12.675V12.5ZM76.2243 33.675C76.2243 34.165 76.2943 34.5967 76.4343 34.97C76.5743 35.3433 76.7493 35.6583 76.9593 35.915C77.1693 36.1483 77.3909 36.335 77.6243 36.475C77.8809 36.5917 78.1143 36.65 78.3243 36.65H81.0893C82.6759 36.65 84.0176 36.3117 85.1143 35.635C86.2343 34.935 87.1326 34.0367 87.8093 32.94C88.4859 31.82 88.9526 30.5483 89.2093 29.125C89.4893 27.6783 89.5709 26.22 89.4543 24.75C89.3376 23.2567 89.0459 21.7983 88.5793 20.375C88.1126 18.9517 87.4826 17.68 86.6893 16.56C85.9193 15.44 84.9859 14.5417 83.8893 13.865C82.8159 13.1883 81.6143 12.85 80.2843 12.85H76.2243V33.675ZM104.952 34.375V14.845L103.692 12.675V12.5H107.472L116.852 28.635L126.162 12.5H129.347V12.675C128.974 12.675 128.659 12.8383 128.402 13.165C128.146 13.4917 128.017 14.145 128.017 15.125V34.375C128.017 35.355 128.146 36.0083 128.402 36.335C128.659 36.6617 128.974 36.825 129.347 36.825V37H123.502V36.825C123.876 36.825 124.191 36.6617 124.447 36.335C124.704 36.0083 124.832 35.355 124.832 34.375V15.545L115.102 32.38L105.302 15.44V34.375C105.302 35.355 105.419 36.0083 105.652 36.335C105.909 36.6617 106.224 36.825 106.597 36.825V37H103.657V36.825C104.031 36.825 104.334 36.6617 104.567 36.335C104.824 36.0083 104.952 35.355 104.952 34.375ZM131.096 24.365C131.096 22.825 131.329 21.32 131.796 19.85C132.286 18.38 132.997 17.085 133.931 15.965C134.887 14.8217 136.077 13.9 137.501 13.2C138.947 12.5 140.639 12.15 142.576 12.15C144.372 12.15 145.959 12.5233 147.336 13.27C148.712 14.0167 149.867 14.9967 150.801 16.21C151.757 17.4233 152.481 18.8 152.971 20.34C153.484 21.88 153.752 23.455 153.776 25.065C153.799 26.605 153.589 28.1217 153.146 29.615C152.726 31.085 152.049 32.3917 151.116 33.535C150.206 34.6783 149.039 35.6 147.616 36.3C146.192 37 144.512 37.35 142.576 37.35C140.686 37.35 139.017 36.9767 137.571 36.23C136.147 35.4833 134.957 34.5033 134.001 33.29C133.044 32.0533 132.321 30.665 131.831 29.125C131.341 27.5617 131.096 25.975 131.096 24.365ZM144.711 36.545C145.831 36.545 146.787 36.335 147.581 35.915C148.374 35.4717 149.027 34.8883 149.541 34.165C150.054 33.4183 150.427 32.555 150.661 31.575C150.917 30.595 151.046 29.545 151.046 28.425C151.046 27.2817 150.929 26.115 150.696 24.925C150.462 23.7117 150.124 22.5333 149.681 21.39C149.261 20.2467 148.736 19.1733 148.106 18.17C147.476 17.1433 146.764 16.245 145.971 15.475C145.177 14.705 144.314 14.0983 143.381 13.655C142.447 13.2117 141.467 12.99 140.441 12.99C139.344 12.99 138.399 13.1883 137.606 13.585C136.812 13.9817 136.147 14.53 135.611 15.23C135.097 15.9067 134.701 16.7117 134.421 17.645C134.164 18.5783 134.012 19.57 133.966 20.62C133.919 21.7633 134.001 22.9533 134.211 24.19C134.444 25.4267 134.771 26.64 135.191 27.83C135.634 28.9967 136.171 30.105 136.801 31.155C137.454 32.205 138.177 33.1383 138.971 33.955C139.787 34.7483 140.674 35.3783 141.631 35.845C142.611 36.3117 143.637 36.545 144.711 36.545ZM155.542 12.5H165.587C167.407 12.5 168.924 12.7683 170.137 13.305C171.374 13.8183 172.307 14.4833 172.937 15.3C173.567 16.1167 173.906 17.015 173.952 17.995C173.999 18.9517 173.754 19.885 173.217 20.795C172.704 21.6817 171.887 22.475 170.767 23.175C169.671 23.875 168.294 24.3533 166.637 24.61L172.622 34.375C173.229 35.3783 173.766 36.0433 174.232 36.37C174.722 36.6733 175.166 36.825 175.562 36.825V37H168.982V36.825C169.192 36.825 169.356 36.79 169.472 36.72C169.612 36.65 169.682 36.5217 169.682 36.335C169.706 36.1483 169.659 35.9033 169.542 35.6C169.426 35.2733 169.216 34.865 168.912 34.375L163.067 24.82H160.477V34.375C160.477 35.355 160.617 36.0083 160.897 36.335C161.177 36.6617 161.516 36.825 161.912 36.825V37H155.542V36.825C155.939 36.825 156.277 36.6617 156.557 36.335C156.837 36.0083 156.977 35.355 156.977 34.375V15.125C156.977 14.145 156.837 13.4917 156.557 13.165C156.277 12.8383 155.939 12.675 155.542 12.675V12.5ZM160.477 24.47H164.432C166.066 24.4467 167.372 24.155 168.352 23.595C169.332 23.0117 170.021 22.2883 170.417 21.425C170.814 20.5617 170.942 19.6283 170.802 18.625C170.686 17.6217 170.324 16.7 169.717 15.86C169.134 14.9967 168.329 14.285 167.302 13.725C166.299 13.1417 165.121 12.85 163.767 12.85H160.477V24.47ZM177.315 36.825C177.711 36.825 178.05 36.6617 178.33 36.335C178.61 36.0083 178.75 35.355 178.75 34.375V14.46L177.385 12.675V12.5H181.34L195.97 31.61V15.125C195.97 14.145 195.83 13.4917 195.55 13.165C195.27 12.8383 194.931 12.675 194.535 12.675V12.5H197.755V12.675C197.358 12.675 197.02 12.8383 196.74 13.165C196.46 13.4917 196.32 14.145 196.32 15.125V37H195.97L179.1 14.915V34.375C179.1 35.355 179.24 36.0083 179.52 36.335C179.8 36.6617 180.138 36.825 180.535 36.825V37H177.315V36.825ZM206.209 12.5V12.675C205.812 12.675 205.474 12.8383 205.194 13.165C204.914 13.4917 204.774 14.145 204.774 15.125V34.375C204.774 35.355 204.914 36.0083 205.194 36.335C205.474 36.6617 205.812 36.825 206.209 36.825V37H199.839V36.825C200.236 36.825 200.574 36.6617 200.854 36.335C201.134 36.0083 201.274 35.355 201.274 34.375V15.125C201.274 14.145 201.134 13.4917 200.854 13.165C200.574 12.8383 200.236 12.675 199.839 12.675V12.5H206.209ZM208.316 36.825C208.712 36.825 209.051 36.6617 209.331 36.335C209.611 36.0083 209.751 35.355 209.751 34.375V14.46L208.386 12.675V12.5H212.341L226.971 31.61V15.125C226.971 14.145 226.831 13.4917 226.551 13.165C226.271 12.8383 225.932 12.675 225.536 12.675V12.5H228.756V12.675C228.359 12.675 228.021 12.8383 227.741 13.165C227.461 13.4917 227.321 14.145 227.321 15.125V37H226.971L210.101 14.915V34.375C210.101 35.355 210.241 36.0083 210.521 36.335C210.801 36.6617 211.139 36.825 211.536 36.825V37H208.316V36.825ZM242.25 12.08C242.67 12.08 243.137 12.1033 243.65 12.15C244.187 12.1967 244.747 12.29 245.33 12.43C245.937 12.57 246.555 12.78 247.185 13.06C247.838 13.3167 248.48 13.6783 249.11 14.145L248.34 15.405C247.99 15.9883 247.582 16.28 247.115 16.28C246.695 16.28 246.275 16.0233 245.855 15.51C245.272 14.81 244.525 14.18 243.615 13.62C242.728 13.06 241.585 12.7917 240.185 12.815C238.855 12.8383 237.735 13.2 236.825 13.9C235.938 14.5767 235.238 15.475 234.725 16.595C234.235 17.6917 233.92 18.9517 233.78 20.375C233.64 21.775 233.663 23.21 233.85 24.68C234.06 26.15 234.422 27.585 234.935 28.985C235.448 30.385 236.102 31.6333 236.895 32.73C237.688 33.8267 238.61 34.7133 239.66 35.39C240.71 36.0667 241.865 36.405 243.125 36.405C243.662 36.405 244.175 36.335 244.665 36.195C245.178 36.0317 245.668 35.8333 246.135 35.6L246.205 27.795C246.205 26.815 246.065 26.1617 245.785 25.835C245.505 25.5083 245.167 25.345 244.77 25.345H239.87V24.995H251.14V25.17C250.743 25.17 250.405 25.3333 250.125 25.66C249.845 25.9867 249.705 26.64 249.705 27.62V37H249.495L247.64 35.005C246.59 35.7983 245.458 36.3933 244.245 36.79C243.032 37.1633 241.76 37.35 240.43 37.35C238.82 37.35 237.385 36.9883 236.125 36.265C234.888 35.5417 233.85 34.585 233.01 33.395C232.17 32.205 231.54 30.8633 231.12 29.37C230.7 27.8533 230.49 26.3017 230.49 24.715C230.513 23.1283 230.758 21.5883 231.225 20.095C231.715 18.5783 232.438 17.225 233.395 16.035C234.375 14.845 235.588 13.8883 237.035 13.165C238.505 12.4417 240.243 12.08 242.25 12.08Z" fill="#636457"/>
</svg>
