<svg width="249" height="53" viewBox="0 0 249 53" fill="none" xmlns="http://www.w3.org/2000/svg">
<path d="M12.46 12.08C12.88 12.08 13.3467 12.1033 13.86 12.15C14.3967 12.1967 14.9567 12.29 15.54 12.43C16.1467 12.57 16.765 12.78 17.395 13.06C18.0483 13.3167 18.69 13.6783 19.32 14.145L18.55 15.405C18.2 15.9883 17.7917 16.28 17.325 16.28C16.905 16.28 16.485 16.0233 16.065 15.51C15.4817 14.81 14.735 14.18 13.825 13.62C12.9383 13.06 11.795 12.7917 10.395 12.815C9.065 12.8383 7.945 13.2 7.035 13.9C6.14833 14.5767 5.44833 15.475 4.935 16.595C4.445 17.6917 4.13 18.9517 3.99 20.375C3.85 21.775 3.87333 23.21 4.06 24.68C4.27 26.15 4.63167 27.585 5.145 28.985C5.65833 30.385 6.31167 31.6333 7.105 32.73C7.89833 33.8267 8.82 34.7133 9.87 35.39C10.92 36.0667 12.075 36.405 13.335 36.405C13.8717 36.405 14.385 36.335 14.875 36.195C15.3883 36.0317 15.8783 35.8333 16.345 35.6L16.415 27.795C16.415 26.815 16.275 26.1617 15.995 25.835C15.715 25.5083 15.3767 25.345 14.98 25.345H10.08V24.995H21.35V25.17C20.9533 25.17 20.615 25.3333 20.335 25.66C20.055 25.9867 19.915 26.64 19.915 27.62V37H19.705L17.85 35.005C16.8 35.7983 15.6683 36.3933 14.455 36.79C13.2417 37.1633 11.97 37.35 10.64 37.35C9.03 37.35 7.595 36.9883 6.335 36.265C5.09833 35.5417 4.06 34.585 3.22 33.395C2.38 32.205 1.75 30.8633 1.33 29.37C0.91 27.8533 0.7 26.3017 0.7 24.715C0.723333 23.1283 0.968333 21.5883 1.435 20.095C1.925 18.5783 2.64833 17.225 3.605 16.035C4.585 14.845 5.79833 13.8883 7.245 13.165C8.715 12.4417 10.4533 12.08 12.46 12.08ZM21.3363 12.675V12.5H28.0213V12.675C27.6247 12.675 27.3563 12.7683 27.2163 12.955C27.0763 13.1417 27.2047 13.55 27.6013 14.18L34.5663 25.205L41.6363 14.18C42.033 13.55 42.1613 13.1417 42.0213 12.955C41.8813 12.7683 41.613 12.675 41.2163 12.675V12.5H44.4713V12.675C44.0747 12.675 43.6663 12.7683 43.2463 12.955C42.8263 13.1417 42.418 13.55 42.0213 14.18L34.6713 25.66V34.375C34.6713 35.355 34.8113 36.0083 35.0913 36.335C35.3713 36.6617 35.7097 36.825 36.1063 36.825V37H29.7363V36.825C30.133 36.825 30.4713 36.6617 30.7513 36.335C31.0313 36.0083 31.1713 35.355 31.1713 34.375V25.835L23.7863 14.18C23.3897 13.55 22.9813 13.1417 22.5613 12.955C22.1413 12.7683 21.733 12.675 21.3363 12.675ZM47.1546 34.375V14.845L45.8946 12.675V12.5H49.6746L59.0546 28.635L68.3646 12.5H71.5496V12.675C71.1762 12.675 70.8612 12.8383 70.6046 13.165C70.3479 13.4917 70.2196 14.145 70.2196 15.125V34.375C70.2196 35.355 70.3479 36.0083 70.6046 36.335C70.8612 36.6617 71.1762 36.825 71.5496 36.825V37H65.7046V36.825C66.0779 36.825 66.3929 36.6617 66.6496 36.335C66.9062 36.0083 67.0346 35.355 67.0346 34.375V15.545L57.3046 32.38L47.5046 15.44V34.375C47.5046 35.355 47.6212 36.0083 47.8546 36.335C48.1112 36.6617 48.4262 36.825 48.7996 36.825V37H45.8596V36.825C46.2329 36.825 46.5362 36.6617 46.7696 36.335C47.0262 36.0083 47.1546 35.355 47.1546 34.375ZM82.5645 32.835C82.9145 32.2517 83.3111 31.96 83.7545 31.96C84.1745 31.96 84.5711 32.24 84.9445 32.8C85.2711 33.2667 85.6445 33.745 86.0645 34.235C86.4845 34.725 86.9395 35.1683 87.4295 35.565C87.9428 35.9617 88.5028 36.2883 89.1095 36.545C89.7161 36.8017 90.3578 36.93 91.0345 36.93C91.5011 36.93 92.0028 36.8367 92.5395 36.65C93.0995 36.4633 93.6128 36.1833 94.0795 35.81C94.5461 35.4367 94.9311 34.97 95.2345 34.41C95.5611 33.85 95.7245 33.2083 95.7245 32.485C95.7245 31.2717 95.3978 30.2683 94.7445 29.475C94.1145 28.6583 93.3095 27.9583 92.3295 27.375C91.3728 26.7683 90.3228 26.2083 89.1795 25.695C88.0361 25.1817 86.9745 24.6217 85.9945 24.015C85.0378 23.385 84.2328 22.65 83.5795 21.81C82.9261 20.97 82.5995 19.92 82.5995 18.66C82.5995 17.4233 82.8561 16.3967 83.3695 15.58C83.9061 14.74 84.5828 14.075 85.3995 13.585C86.2161 13.0717 87.1145 12.71 88.0945 12.5C89.0978 12.29 90.0778 12.1733 91.0345 12.15C92.4345 12.1033 93.8345 12.255 95.2345 12.605C96.6345 12.9317 97.8245 13.48 98.8045 14.25L98.0695 15.51C97.6961 16.0933 97.3111 16.385 96.9145 16.385C96.5178 16.385 96.1211 16.1167 95.7245 15.58C95.4445 15.2067 95.1295 14.845 94.7795 14.495C94.4295 14.1217 94.0328 13.795 93.5895 13.515C93.1461 13.235 92.6445 13.0133 92.0845 12.85C91.5478 12.6633 90.9528 12.57 90.2995 12.57C89.8328 12.57 89.3428 12.6633 88.8295 12.85C88.3395 13.0367 87.8845 13.3167 87.4645 13.69C87.0678 14.0633 86.7295 14.53 86.4495 15.09C86.1928 15.65 86.0645 16.2917 86.0645 17.015C86.0645 18.1817 86.3795 19.1617 87.0095 19.955C87.6628 20.725 88.4678 21.4017 89.4245 21.985C90.4045 22.5683 91.4545 23.1167 92.5745 23.63C93.6945 24.12 94.7328 24.68 95.6895 25.31C96.6695 25.9167 97.4861 26.6517 98.1395 27.515C98.7928 28.355 99.1195 29.4167 99.1195 30.7C99.1195 31.9133 98.8395 32.94 98.2795 33.78C97.7428 34.62 97.0311 35.3083 96.1445 35.845C95.2578 36.3583 94.2545 36.7433 93.1345 37C92.0378 37.2333 90.9411 37.35 89.8445 37.35C89.1445 37.35 88.3978 37.2917 87.6045 37.175C86.8345 37.0583 86.0761 36.8833 85.3295 36.65C84.5828 36.3933 83.8945 36.0667 83.2645 35.67C82.6345 35.2733 82.1095 34.8067 81.6895 34.27L82.5645 32.835ZM112.159 12.08C112.579 12.08 113.046 12.1033 113.559 12.15C114.096 12.1967 114.656 12.29 115.239 12.43C115.846 12.57 116.464 12.78 117.094 13.06C117.747 13.3167 118.389 13.6783 119.019 14.145L118.249 15.405C117.899 15.9883 117.491 16.28 117.024 16.28C116.604 16.28 116.184 16.0233 115.764 15.51C115.484 15.16 115.157 14.8217 114.784 14.495C114.411 14.1683 113.991 13.8883 113.524 13.655C113.057 13.3983 112.544 13.2 111.984 13.06C111.424 12.8967 110.794 12.815 110.094 12.815C108.764 12.8383 107.644 13.1883 106.734 13.865C105.847 14.5183 105.147 15.3817 104.634 16.455C104.144 17.5283 103.829 18.7533 103.689 20.13C103.572 21.4833 103.631 22.8717 103.864 24.295C104.097 25.7183 104.494 27.1183 105.054 28.495C105.614 29.8483 106.314 31.0617 107.154 32.135C108.017 33.185 109.021 34.0367 110.164 34.69C111.331 35.3433 112.614 35.67 114.014 35.67C115.344 35.67 116.546 35.39 117.619 34.83C118.716 34.2467 119.684 33.5 120.524 32.59L120.734 32.8C119.567 34.3633 118.179 35.5183 116.569 36.265C114.959 36.9883 113.232 37.35 111.389 37.35C109.639 37.35 108.087 36.9883 106.734 36.265C105.404 35.5417 104.284 34.585 103.374 33.395C102.464 32.205 101.764 30.8633 101.274 29.37C100.807 27.8533 100.562 26.3017 100.539 24.715C100.516 23.1283 100.737 21.5883 101.204 20.095C101.671 18.5783 102.382 17.225 103.339 16.035C104.296 14.845 105.497 13.8883 106.944 13.165C108.414 12.4417 110.152 12.08 112.159 12.08ZM121.773 12.5H128.143V12.675C127.746 12.675 127.408 12.8383 127.128 13.165C126.848 13.4917 126.708 14.145 126.708 15.125V23.875H138.468V15.125C138.468 14.145 138.328 13.4917 138.048 13.165C137.768 12.8383 137.429 12.675 137.033 12.675V12.5H143.403V12.675C143.006 12.675 142.668 12.8383 142.388 13.165C142.108 13.4917 141.968 14.145 141.968 15.125V34.375C141.968 35.355 142.108 36.0083 142.388 36.335C142.668 36.6617 143.006 36.825 143.403 36.825V37H137.033V36.825C137.429 36.825 137.768 36.6617 138.048 36.335C138.328 36.0083 138.468 35.355 138.468 34.375V24.225H126.708V34.375C126.708 35.355 126.848 36.0083 127.128 36.335C127.408 36.6617 127.746 36.825 128.143 36.825V37H121.773V36.825C122.169 36.825 122.508 36.6617 122.788 36.335C123.068 36.0083 123.208 35.355 123.208 34.375V15.125C123.208 14.145 123.068 13.4917 122.788 13.165C122.508 12.8383 122.169 12.675 121.773 12.675V12.5ZM162.328 12.5L163.378 16.7C162.888 15.9767 162.305 15.37 161.628 14.88C160.975 14.39 160.298 13.9933 159.598 13.69C158.922 13.3867 158.257 13.1767 157.603 13.06C156.95 12.92 156.39 12.85 155.923 12.85H150.428V23.175H155.398C155.888 23.175 156.285 23.105 156.588 22.965C156.915 22.825 157.172 22.6733 157.358 22.51C157.545 22.3233 157.673 22.16 157.743 22.02C157.813 21.8567 157.848 21.7633 157.848 21.74H158.023V24.96H157.848C157.848 24.9367 157.813 24.855 157.743 24.715C157.673 24.5517 157.545 24.3883 157.358 24.225C157.172 24.0383 156.915 23.875 156.588 23.735C156.285 23.595 155.888 23.525 155.398 23.525H150.428V36.65H155.923C156.39 36.65 156.95 36.58 157.603 36.44C158.257 36.3 158.922 36.09 159.598 35.81C160.298 35.5067 160.975 35.11 161.628 34.62C162.305 34.13 162.888 33.5233 163.378 32.8L162.328 37H145.493V36.825C145.89 36.825 146.228 36.6617 146.508 36.335C146.788 36.0083 146.928 35.355 146.928 34.375V15.125C146.928 14.145 146.788 13.4917 146.508 13.165C146.228 12.8383 145.89 12.675 145.493 12.675V12.5H162.328ZM164.771 12.5H175.901C177.721 12.5 179.296 12.85 180.626 13.55C181.979 14.25 183.087 15.1717 183.951 16.315C184.814 17.4583 185.432 18.765 185.806 20.235C186.202 21.705 186.354 23.21 186.261 24.75C186.191 26.2667 185.876 27.76 185.316 29.23C184.756 30.7 183.962 32.0067 182.936 33.15C181.932 34.2933 180.696 35.2267 179.226 35.95C177.756 36.65 176.064 37 174.151 37H164.771V36.825C165.167 36.825 165.506 36.6617 165.786 36.335C166.066 36.0083 166.206 35.355 166.206 34.375V15.125C166.206 14.145 166.066 13.4917 165.786 13.165C165.506 12.8383 165.167 12.675 164.771 12.675V12.5ZM169.706 33.675C169.706 34.165 169.776 34.5967 169.916 34.97C170.056 35.3433 170.231 35.6583 170.441 35.915C170.651 36.1483 170.872 36.335 171.106 36.475C171.362 36.5917 171.596 36.65 171.806 36.65H174.571C176.157 36.65 177.499 36.3117 178.596 35.635C179.716 34.935 180.614 34.0367 181.291 32.94C181.967 31.82 182.434 30.5483 182.691 29.125C182.971 27.6783 183.052 26.22 182.936 24.75C182.819 23.2567 182.527 21.7983 182.061 20.375C181.594 18.9517 180.964 17.68 180.171 16.56C179.401 15.44 178.467 14.5417 177.371 13.865C176.297 13.1883 175.096 12.85 173.766 12.85H169.706V33.675ZM188.047 12.5H194.417V12.675C194.02 12.675 193.682 12.8383 193.402 13.165C193.122 13.4917 192.982 14.145 192.982 15.125V24.47C192.982 25.1467 193.005 25.9167 193.052 26.78C193.099 27.62 193.204 28.4833 193.367 29.37C193.554 30.2567 193.799 31.12 194.102 31.96C194.429 32.7767 194.86 33.5117 195.397 34.165C195.957 34.8183 196.645 35.3433 197.462 35.74C198.279 36.1367 199.259 36.335 200.402 36.335C201.475 36.335 202.374 36.1367 203.097 35.74C203.844 35.3433 204.45 34.8183 204.917 34.165C205.407 33.5117 205.769 32.765 206.002 31.925C206.259 31.085 206.445 30.2333 206.562 29.37C206.679 28.4833 206.737 27.62 206.737 26.78C206.76 25.9167 206.772 25.1467 206.772 24.47V15.125C206.772 14.145 206.632 13.4917 206.352 13.165C206.072 12.8383 205.734 12.675 205.337 12.675V12.5H208.592V12.675C208.195 12.675 207.857 12.8383 207.577 13.165C207.297 13.4917 207.157 14.145 207.157 15.125V26.15C207.157 27.69 207.029 29.1367 206.772 30.49C206.539 31.8433 206.095 33.0333 205.442 34.06C204.789 35.0633 203.89 35.8683 202.747 36.475C201.604 37.0583 200.145 37.35 198.372 37.35C196.412 37.35 194.849 37.07 193.682 36.51C192.515 35.9267 191.617 35.1333 190.987 34.13C190.38 33.1267 189.972 31.9483 189.762 30.595C189.575 29.2183 189.482 27.725 189.482 26.115V15.125C189.482 14.145 189.342 13.4917 189.062 13.165C188.782 12.8383 188.444 12.675 188.047 12.675V12.5ZM217.078 12.5V12.675C216.682 12.675 216.343 12.8383 216.063 13.165C215.783 13.4917 215.643 14.145 215.643 15.125V36.65H221.138C221.605 36.65 222.165 36.58 222.818 36.44C223.472 36.3 224.137 36.09 224.813 35.81C225.513 35.5067 226.19 35.11 226.843 34.62C227.52 34.13 228.103 33.5233 228.593 32.8L227.543 37H210.708V36.825C211.105 36.825 211.443 36.6617 211.723 36.335C212.003 36.0083 212.143 35.355 212.143 34.375V15.125C212.143 14.145 212.003 13.4917 211.723 13.165C211.443 12.8383 211.105 12.675 210.708 12.675V12.5H217.078ZM246.821 12.5L247.871 16.7C247.381 15.9767 246.797 15.37 246.121 14.88C245.467 14.39 244.791 13.9933 244.091 13.69C243.414 13.3867 242.749 13.1767 242.096 13.06C241.442 12.92 240.882 12.85 240.416 12.85H234.921V23.175H239.891C240.381 23.175 240.777 23.105 241.081 22.965C241.407 22.825 241.664 22.6733 241.851 22.51C242.037 22.3233 242.166 22.16 242.236 22.02C242.306 21.8567 242.341 21.7633 242.341 21.74H242.516V24.96H242.341C242.341 24.9367 242.306 24.855 242.236 24.715C242.166 24.5517 242.037 24.3883 241.851 24.225C241.664 24.0383 241.407 23.875 241.081 23.735C240.777 23.595 240.381 23.525 239.891 23.525H234.921V36.65H240.416C240.882 36.65 241.442 36.58 242.096 36.44C242.749 36.3 243.414 36.09 244.091 35.81C244.791 35.5067 245.467 35.11 246.121 34.62C246.797 34.13 247.381 33.5233 247.871 32.8L246.821 37H229.986V36.825C230.382 36.825 230.721 36.6617 231.001 36.335C231.281 36.0083 231.421 35.355 231.421 34.375V15.125C231.421 14.145 231.281 13.4917 231.001 13.165C230.721 12.8383 230.382 12.675 229.986 12.675V12.5H246.821Z" fill="#636457"/>
</svg>
