<svg width="318" height="54" viewBox="0 0 318 54" fill="none" xmlns="http://www.w3.org/2000/svg">
<path d="M1.2 14H12.68C14.76 14 16.4933 14.3067 17.88 14.92C19.2933 15.5067 20.36 16.2667 21.08 17.2C21.8 18.1333 22.1867 19.16 22.24 20.28C22.2933 21.3733 22.0133 22.44 21.4 23.48C20.8133 24.4933 19.88 25.4 18.6 26.2C17.3467 27 15.7733 27.5467 13.88 27.84L20.72 39C21.4133 40.1467 22.0267 40.9067 22.56 41.28C23.12 41.6267 23.6267 41.8 24.08 41.8V42H16.56V41.8C16.8 41.8 16.9867 41.76 17.12 41.68C17.28 41.6 17.36 41.4533 17.36 41.24C17.3867 41.0267 17.3333 40.7467 17.2 40.4C17.0667 40.0267 16.8267 39.56 16.48 39L9.8 28.08H6.84V39C6.84 40.12 7 40.8667 7.32 41.24C7.64 41.6133 8.02667 41.8 8.48 41.8V42H1.2V41.8C1.65333 41.8 2.04 41.6133 2.36 41.24C2.68 40.8667 2.84 40.12 2.84 39V17C2.84 15.88 2.68 15.1333 2.36 14.76C2.04 14.3867 1.65333 14.2 1.2 14.2V14ZM6.84 27.68H11.36C13.2267 27.6533 14.72 27.32 15.84 26.68C16.96 26.0133 17.7467 25.1867 18.2 24.2C18.6533 23.2133 18.8 22.1467 18.64 21C18.5067 19.8533 18.0933 18.8 17.4 17.84C16.7333 16.8533 15.8133 16.04 14.64 15.4C13.4933 14.7333 12.1467 14.4 10.6 14.4H6.84V27.68ZM33.3628 14V14.2C32.9095 14.2 32.5228 14.3867 32.2028 14.76C31.8828 15.1333 31.7228 15.88 31.7228 17V39C31.7228 40.12 31.8828 40.8667 32.2028 41.24C32.5228 41.6133 32.9095 41.8 33.3628 41.8V42H26.0828V41.8C26.5361 41.8 26.9228 41.6133 27.2428 41.24C27.5628 40.8667 27.7228 40.12 27.7228 39V17C27.7228 15.88 27.5628 15.1333 27.2428 14.76C26.9228 14.3867 26.5361 14.2 26.0828 14.2V14H33.3628ZM35.5703 37.24C35.9703 36.5733 36.4236 36.24 36.9303 36.24C37.4103 36.24 37.8636 36.56 38.2903 37.2C38.6636 37.7333 39.0903 38.28 39.5703 38.84C40.0503 39.4 40.5703 39.9067 41.1303 40.36C41.717 40.8133 42.357 41.1867 43.0503 41.48C43.7436 41.7733 44.477 41.92 45.2503 41.92C45.7836 41.92 46.357 41.8133 46.9703 41.6C47.6103 41.3867 48.197 41.0667 48.7303 40.64C49.2636 40.2133 49.7036 39.68 50.0503 39.04C50.4236 38.4 50.6103 37.6667 50.6103 36.84C50.6103 35.4533 50.237 34.3067 49.4903 33.4C48.7703 32.4667 47.8503 31.6667 46.7303 31C45.637 30.3067 44.437 29.6667 43.1303 29.08C41.8236 28.4933 40.6103 27.8533 39.4903 27.16C38.397 26.44 37.477 25.6 36.7303 24.64C35.9836 23.68 35.6103 22.48 35.6103 21.04C35.6103 19.6267 35.9036 18.4533 36.4903 17.52C37.1036 16.56 37.877 15.8 38.8103 15.24C39.7436 14.6533 40.7703 14.24 41.8903 14C43.037 13.76 44.157 13.6267 45.2503 13.6C46.8503 13.5467 48.4503 13.72 50.0503 14.12C51.6503 14.4933 53.0103 15.12 54.1303 16L53.2903 17.44C52.8636 18.1067 52.4236 18.44 51.9703 18.44C51.517 18.44 51.0636 18.1333 50.6103 17.52C50.2903 17.0933 49.9303 16.68 49.5303 16.28C49.1303 15.8533 48.677 15.48 48.1703 15.16C47.6636 14.84 47.0903 14.5867 46.4503 14.4C45.837 14.1867 45.157 14.08 44.4103 14.08C43.877 14.08 43.317 14.1867 42.7303 14.4C42.1703 14.6133 41.6503 14.9333 41.1703 15.36C40.717 15.7867 40.3303 16.32 40.0103 16.96C39.717 17.6 39.5703 18.3333 39.5703 19.16C39.5703 20.4933 39.9303 21.6133 40.6503 22.52C41.397 23.4 42.317 24.1733 43.4103 24.84C44.5303 25.5067 45.7303 26.1333 47.0103 26.72C48.2903 27.28 49.477 27.92 50.5703 28.64C51.6903 29.3333 52.6236 30.1733 53.3703 31.16C54.117 32.12 54.4903 33.3333 54.4903 34.8C54.4903 36.1867 54.1703 37.36 53.5303 38.32C52.917 39.28 52.1036 40.0667 51.0903 40.68C50.077 41.2667 48.9303 41.7067 47.6503 42C46.397 42.2667 45.1436 42.4 43.8903 42.4C43.0903 42.4 42.237 42.3333 41.3303 42.2C40.4503 42.0667 39.5836 41.8667 38.7303 41.6C37.877 41.3067 37.0903 40.9333 36.3703 40.48C35.6503 40.0267 35.0503 39.4933 34.5703 38.88L35.5703 37.24ZM75.7525 14L76.9525 18.8C76.3925 17.9733 75.7258 17.28 74.9525 16.72C74.2058 16.16 73.4325 15.7067 72.6325 15.36C71.8592 15.0133 71.0992 14.7733 70.3525 14.64C69.6058 14.48 68.9658 14.4 68.4325 14.4H62.1525V26.2H67.8325C68.3925 26.2 68.8458 26.12 69.1925 25.96C69.5658 25.8 69.8592 25.6267 70.0725 25.44C70.2858 25.2267 70.4325 25.04 70.5125 24.88C70.5925 24.6933 70.6325 24.5867 70.6325 24.56H70.8325V28.24H70.6325C70.6325 28.2133 70.5925 28.12 70.5125 27.96C70.4325 27.7733 70.2858 27.5867 70.0725 27.4C69.8592 27.1867 69.5658 27 69.1925 26.84C68.8458 26.68 68.3925 26.6 67.8325 26.6H62.1525V41.6H68.4325C68.9658 41.6 69.6058 41.52 70.3525 41.36C71.0992 41.2 71.8592 40.96 72.6325 40.64C73.4325 40.2933 74.2058 39.84 74.9525 39.28C75.7258 38.72 76.3925 38.0267 76.9525 37.2L75.7525 42H56.5125V41.8C56.9658 41.8 57.3525 41.6133 57.6725 41.24C57.9925 40.8667 58.1525 40.12 58.1525 39V17C58.1525 15.88 57.9925 15.1333 57.6725 14.76C57.3525 14.3867 56.9658 14.2 56.5125 14.2V14H75.7525ZM88.1344 41.8C88.5877 41.8 89.0544 41.6133 89.5344 41.24C90.0144 40.8667 90.481 40.12 90.9344 39L101.134 14H101.974L111.774 39C112.228 40.12 112.694 40.8667 113.174 41.24C113.654 41.6133 114.121 41.8 114.574 41.8V42H107.094V41.8C107.548 41.8 107.854 41.6133 108.014 41.24C108.174 40.8667 108.028 40.12 107.574 39L105.374 33.4H93.6544L91.3744 39C90.921 40.12 90.7744 40.8667 90.9344 41.24C91.0944 41.6133 91.401 41.8 91.8544 41.8V42H88.1344V41.8ZM105.214 33L99.6544 18.76L93.8144 33H105.214ZM116.161 41.8C116.614 41.8 117.001 41.6133 117.321 41.24C117.641 40.8667 117.801 40.12 117.801 39V16.24L116.241 14.2V14H120.761L137.481 35.84V17C137.481 15.88 137.321 15.1333 137.001 14.76C136.681 14.3867 136.294 14.2 135.841 14.2V14H139.521V14.2C139.068 14.2 138.681 14.3867 138.361 14.76C138.041 15.1333 137.881 15.88 137.881 17V42H137.481L118.201 16.76V39C118.201 40.12 118.361 40.8667 118.681 41.24C119.001 41.6133 119.388 41.8 119.841 41.8V42H116.161V41.8ZM141.903 14H154.623C156.703 14 158.503 14.4 160.023 15.2C161.57 16 162.836 17.0533 163.823 18.36C164.81 19.6667 165.516 21.16 165.943 22.84C166.396 24.52 166.57 26.24 166.463 28C166.383 29.7333 166.023 31.44 165.383 33.12C164.743 34.8 163.836 36.2933 162.663 37.6C161.516 38.9067 160.103 39.9733 158.423 40.8C156.743 41.6 154.81 42 152.623 42H141.903V41.8C142.356 41.8 142.743 41.6133 143.063 41.24C143.383 40.8667 143.543 40.12 143.543 39V17C143.543 15.88 143.383 15.1333 143.063 14.76C142.743 14.3867 142.356 14.2 141.903 14.2V14ZM147.543 38.2C147.543 38.76 147.623 39.2533 147.783 39.68C147.943 40.1067 148.143 40.4667 148.383 40.76C148.623 41.0267 148.876 41.24 149.143 41.4C149.436 41.5333 149.703 41.6 149.943 41.6H153.103C154.916 41.6 156.45 41.2133 157.703 40.44C158.983 39.64 160.01 38.6133 160.783 37.36C161.556 36.08 162.09 34.6267 162.383 33C162.703 31.3467 162.796 29.68 162.663 28C162.53 26.2933 162.196 24.6267 161.663 23C161.13 21.3733 160.41 19.92 159.503 18.64C158.623 17.36 157.556 16.3333 156.303 15.56C155.076 14.7867 153.703 14.4 152.183 14.4H147.543V38.2ZM179.295 14H201.655L202.855 20.4C202.295 19.5733 201.669 18.8 200.975 18.08C200.309 17.3333 199.602 16.6933 198.855 16.16C198.109 15.6267 197.349 15.2 196.575 14.88C195.829 14.56 195.082 14.4 194.335 14.4H192.455V39C192.455 40.12 192.615 40.8667 192.935 41.24C193.255 41.6133 193.642 41.8 194.095 41.8V42H186.815V41.8C187.269 41.8 187.655 41.6133 187.975 41.24C188.295 40.8667 188.455 40.12 188.455 39V14.4H186.615C186.082 14.4 185.442 14.52 184.695 14.76C183.949 14.9733 183.175 15.3067 182.375 15.76C181.602 16.1867 180.829 16.7333 180.055 17.4C179.309 18.04 178.655 18.7733 178.095 19.6L179.295 14ZM204.442 14H211.722V14.2C211.269 14.2 210.882 14.3867 210.562 14.76C210.242 15.1333 210.082 15.88 210.082 17V27H223.522V17C223.522 15.88 223.362 15.1333 223.042 14.76C222.722 14.3867 222.336 14.2 221.882 14.2V14H229.162V14.2C228.709 14.2 228.322 14.3867 228.002 14.76C227.682 15.1333 227.522 15.88 227.522 17V39C227.522 40.12 227.682 40.8667 228.002 41.24C228.322 41.6133 228.709 41.8 229.162 41.8V42H221.882V41.8C222.336 41.8 222.722 41.6133 223.042 41.24C223.362 40.8667 223.522 40.12 223.522 39V27.4H210.082V39C210.082 40.12 210.242 40.8667 210.562 41.24C210.882 41.6133 211.269 41.8 211.722 41.8V42H204.442V41.8C204.896 41.8 205.282 41.6133 205.602 41.24C205.922 40.8667 206.082 40.12 206.082 39V17C206.082 15.88 205.922 15.1333 205.602 14.76C205.282 14.3867 204.896 14.2 204.442 14.2V14ZM231.552 14H243.032C245.112 14 246.845 14.3067 248.232 14.92C249.645 15.5067 250.712 16.2667 251.432 17.2C252.152 18.1333 252.538 19.16 252.592 20.28C252.645 21.3733 252.365 22.44 251.752 23.48C251.165 24.4933 250.232 25.4 248.952 26.2C247.698 27 246.125 27.5467 244.232 27.84L251.072 39C251.765 40.1467 252.378 40.9067 252.912 41.28C253.472 41.6267 253.978 41.8 254.432 41.8V42H246.912V41.8C247.152 41.8 247.338 41.76 247.472 41.68C247.632 41.6 247.712 41.4533 247.712 41.24C247.738 41.0267 247.685 40.7467 247.552 40.4C247.418 40.0267 247.178 39.56 246.832 39L240.152 28.08H237.192V39C237.192 40.12 237.352 40.8667 237.672 41.24C237.992 41.6133 238.378 41.8 238.832 41.8V42H231.552V41.8C232.005 41.8 232.392 41.6133 232.712 41.24C233.032 40.8667 233.192 40.12 233.192 39V17C233.192 15.88 233.032 15.1333 232.712 14.76C232.392 14.3867 232.005 14.2 231.552 14.2V14ZM237.192 27.68H241.712C243.578 27.6533 245.072 27.32 246.192 26.68C247.312 26.0133 248.098 25.1867 248.552 24.2C249.005 23.2133 249.152 22.1467 248.992 21C248.858 19.8533 248.445 18.8 247.752 17.84C247.085 16.8533 246.165 16.04 244.992 15.4C243.845 14.7333 242.498 14.4 240.952 14.4H237.192V27.68ZM263.714 14V14.2C263.261 14.2 262.874 14.3867 262.554 14.76C262.234 15.1333 262.074 15.88 262.074 17V39C262.074 40.12 262.234 40.8667 262.554 41.24C262.874 41.6133 263.261 41.8 263.714 41.8V42H256.434V41.8C256.888 41.8 257.274 41.6133 257.594 41.24C257.914 40.8667 258.074 40.12 258.074 39V17C258.074 15.88 257.914 15.1333 257.594 14.76C257.274 14.3867 256.888 14.2 256.434 14.2V14H263.714ZM265.322 14.2V14H272.802V14.2C272.349 14.2 272.042 14.3867 271.882 14.76C271.722 15.1333 271.869 15.88 272.322 17L280.242 37.24L288.522 17C288.975 15.88 289.122 15.1333 288.962 14.76C288.802 14.3867 288.495 14.2 288.042 14.2V14H291.762V14.2C291.309 14.2 290.842 14.3867 290.362 14.76C289.882 15.1333 289.415 15.88 288.962 17L278.762 42H277.922L268.122 17C267.669 15.88 267.202 15.1333 266.722 14.76C266.242 14.3867 265.775 14.2 265.322 14.2ZM312.588 14L313.788 18.8C313.228 17.9733 312.562 17.28 311.788 16.72C311.042 16.16 310.268 15.7067 309.468 15.36C308.695 15.0133 307.935 14.7733 307.188 14.64C306.442 14.48 305.802 14.4 305.268 14.4H298.988V26.2H304.668C305.228 26.2 305.682 26.12 306.028 25.96C306.402 25.8 306.695 25.6267 306.908 25.44C307.122 25.2267 307.268 25.04 307.348 24.88C307.428 24.6933 307.468 24.5867 307.468 24.56H307.668V28.24H307.468C307.468 28.2133 307.428 28.12 307.348 27.96C307.268 27.7733 307.122 27.5867 306.908 27.4C306.695 27.1867 306.402 27 306.028 26.84C305.682 26.68 305.228 26.6 304.668 26.6H298.988V41.6H305.268C305.802 41.6 306.442 41.52 307.188 41.36C307.935 41.2 308.695 40.96 309.468 40.64C310.268 40.2933 311.042 39.84 311.788 39.28C312.562 38.72 313.228 38.0267 313.788 37.2L312.588 42H293.348V41.8C293.802 41.8 294.188 41.6133 294.508 41.24C294.828 40.8667 294.988 40.12 294.988 39V17C294.988 15.88 294.828 15.1333 294.508 14.76C294.188 14.3867 293.802 14.2 293.348 14.2V14H312.588Z" fill="#636457"/>
</svg>
