<svg width="110" height="20" viewBox="0 0 110 20" fill="none" xmlns="http://www.w3.org/2000/svg">
<path d="M1.24 10.48C1.26667 11.8133 1.32667 13.0933 1.42 14.32C2.04667 14.2133 2.66667 13.9933 3.28 13.66C3.90667 13.3267 4.42667 12.94 4.84 12.5C5.45333 11.8333 5.88 10.96 6.12 9.88C6.37333 8.74667 6.26 7.85333 5.78 7.2C5.35333 6.61333 4.78667 6.36 4.08 6.44C3.37333 6.52 2.80667 6.86667 2.38 7.48C1.68667 8.48 1.30667 9.46667 1.24 10.44V10.48ZM0.72 14.72C0.44 11.24 0.433333 6.88 0.7 1.64C0.7 1.54667 0.733333 1.46667 0.8 1.4C0.88 1.33333 0.966667 1.3 1.06 1.3C1.16667 1.3 1.25333 1.34 1.32 1.42C1.38667 1.48667 1.42 1.57333 1.42 1.68C1.3 4.09333 1.23333 6.20667 1.22 8.02C1.38 7.7 1.56667 7.38667 1.78 7.08C2.12667 6.58667 2.57333 6.21333 3.12 5.96C3.68 5.70667 4.26 5.64 4.86 5.76C5.47333 5.88 5.98 6.21333 6.38 6.76C6.96667 7.6 7.11333 8.69333 6.82 10.04C6.56667 11.24 6.08 12.22 5.36 12.98C4.88 13.5 4.28667 13.9467 3.58 14.32C2.87333 14.6933 2.16 14.94 1.44 15.06C1.38667 15.2067 1.28 15.2867 1.12 15.3C1.02667 15.3133 0.94 15.2867 0.86 15.22C0.793333 15.1533 0.753333 15.0667 0.74 14.96L0.72 14.82V14.78V14.72ZM8.23172 5.72C7.91172 7.89333 7.74505 9.52 7.73172 10.6C7.71839 11.68 7.81839 12.52 8.03172 13.12C8.24505 13.76 8.56505 14.1067 8.99172 14.16C9.43172 14.2133 9.83172 14.0533 10.1917 13.68C10.5251 13.32 10.8317 12.7867 11.1117 12.08C11.5384 10.9333 11.7917 9.71333 11.8717 8.42C11.8984 7.94 11.9117 7.37333 11.9117 6.72V6.38V6.16V5.98V5.92V5.86L11.9517 5.78C12.0184 5.64667 12.1251 5.58 12.2717 5.58C12.4051 5.58 12.5051 5.64 12.5717 5.76C12.5984 5.78667 12.6117 5.81333 12.6117 5.84C12.6251 5.85333 12.6317 5.87333 12.6317 5.9C12.6317 5.92667 12.6384 5.96 12.6517 6V6.24C12.6651 6.45333 12.6784 6.78 12.6917 7.22C12.7184 8.1 12.7517 9.32667 12.7917 10.9C12.7917 11.14 12.8051 11.5867 12.8317 12.24C12.8717 12.88 12.8984 13.4133 12.9117 13.84C12.9251 14.2533 12.9117 14.74 12.8717 15.3C12.8451 15.86 12.7784 16.3467 12.6717 16.76C12.4184 17.8 11.9317 18.5133 11.2117 18.9C10.3984 19.3267 9.30505 19.32 7.93172 18.88C7.82505 18.8533 7.75172 18.7933 7.71172 18.7C7.67172 18.62 7.66505 18.5267 7.69172 18.42C7.71839 18.3267 7.77172 18.26 7.85172 18.22C7.94505 18.18 8.03839 18.1733 8.13172 18.2C9.33172 18.5733 10.2451 18.5933 10.8717 18.26C11.4051 17.98 11.7717 17.42 11.9717 16.58C12.0384 16.3 12.0917 15.9933 12.1317 15.66C12.1717 15.34 12.1917 14.98 12.1917 14.58C12.1917 14.1667 12.1851 13.8267 12.1717 13.56C12.1717 13.28 12.1584 12.8933 12.1317 12.4C12.1051 11.8933 12.0917 11.5533 12.0917 11.38C11.9984 11.7133 11.8917 12.0333 11.7717 12.34C11.4784 13.14 11.1251 13.7533 10.7117 14.18C10.1784 14.7267 9.57839 14.96 8.91172 14.88C8.17839 14.7867 7.65172 14.28 7.33172 13.36C7.10505 12.6667 6.99839 11.7467 7.01172 10.6C7.02505 9.49333 7.19172 7.82667 7.51172 5.6C7.52505 5.50667 7.57172 5.43333 7.65172 5.38C7.73172 5.31333 7.81839 5.28667 7.91172 5.3C8.01839 5.31333 8.09839 5.36 8.15172 5.44C8.21839 5.52 8.24505 5.61333 8.23172 5.72ZM24.6356 1.12L24.8156 3.08C24.8423 3.38667 24.889 4.02667 24.9556 5C25.0223 5.96 25.049 6.7 25.0356 7.22C25.0223 7.74 25.0023 8.4 24.9756 9.2C24.949 10 24.8756 10.72 24.7556 11.36C24.6356 12 24.4823 12.6133 24.2956 13.2C24.0823 13.8267 23.7423 14.36 23.2756 14.8C22.8223 15.24 22.309 15.54 21.7356 15.7C21.1356 15.8467 20.5556 15.8 19.9956 15.56C19.4356 15.3333 18.969 14.9 18.5956 14.26C18.5556 14.18 18.5423 14.0933 18.5556 14C18.5823 13.8933 18.6356 13.82 18.7156 13.78C18.809 13.7267 18.9023 13.7133 18.9956 13.74C19.1023 13.7533 19.1823 13.8067 19.2356 13.9C19.5023 14.38 19.8423 14.7067 20.2556 14.88C20.669 15.0533 21.1023 15.08 21.5556 14.96C22.009 14.84 22.4223 14.6067 22.7956 14.26C23.169 13.9 23.4423 13.46 23.6156 12.94C23.829 12.3 23.989 11.5533 24.0956 10.7C24.2156 9.84667 24.289 9.1 24.3156 8.46C24.3423 7.80667 24.329 6.94667 24.2756 5.88C24.2223 4.8 24.1756 4.03333 24.1356 3.58C24.0956 3.12667 24.0223 2.33333 23.9156 1.2C23.9023 1.08 23.929 0.986665 23.9956 0.919999C24.0623 0.839999 24.1423 0.793333 24.2356 0.779999C24.3423 0.766666 24.429 0.793333 24.4956 0.86C24.5756 0.926666 24.6223 1.01333 24.6356 1.12ZM31.3673 6.06C30.7807 5.59333 30.1207 5.62 29.3873 6.14C28.6673 6.66 28.014 7.51333 27.4273 8.7C26.854 9.87333 26.5273 10.9933 26.4473 12.06C26.3673 13.1533 26.5807 13.88 27.0873 14.24C27.5407 14.5733 27.9873 14.56 28.4273 14.2C28.8673 13.84 29.3007 13.18 29.7273 12.22C30.034 11.5267 30.3607 10.6467 30.7073 9.58C31.0673 8.46 31.2673 7.86667 31.3073 7.8V7.74V7.64V7.56C31.3207 7.44 31.3473 7.34 31.3873 7.26C31.4807 7.08667 31.634 7.00667 31.8473 7.02C31.9673 7.03333 32.0607 7.1 32.1273 7.22C32.154 7.24667 32.1673 7.28667 32.1673 7.34C32.1807 7.36667 32.1873 7.41333 32.1873 7.48C32.2007 7.53333 32.2073 7.65333 32.2073 7.84C32.2207 8.38667 32.2407 8.88667 32.2673 9.34C32.2807 9.59333 32.294 9.96 32.3073 10.44C32.334 10.9733 32.3607 11.38 32.3873 11.66C32.4807 13.02 32.6073 14.0933 32.7673 14.88C32.7807 14.9733 32.7607 15.06 32.7073 15.14C32.654 15.22 32.574 15.2667 32.4673 15.28C32.374 15.3067 32.2873 15.2933 32.2073 15.24C32.1273 15.1867 32.074 15.1067 32.0473 15C31.9007 14.2 31.774 13.1 31.6673 11.7L31.6073 10.48C31.5807 9.96 31.5607 9.59333 31.5473 9.38V9.34L31.4073 9.8C31.0473 10.9067 30.7073 11.8133 30.3873 12.52C29.9073 13.5733 29.4073 14.3133 28.8873 14.74C28.1673 15.3533 27.4207 15.3867 26.6473 14.84C25.9407 14.32 25.634 13.38 25.7273 12.02C25.8207 10.8467 26.174 9.63333 26.7873 8.38C27.4273 7.1 28.1607 6.16 28.9873 5.56C30.0007 4.82667 30.9407 4.80667 31.8073 5.5C31.8873 5.56667 31.934 5.64667 31.9473 5.74C31.9607 5.83333 31.934 5.92 31.8673 6C31.8007 6.08 31.7207 6.12667 31.6273 6.14C31.534 6.15333 31.4473 6.12667 31.3673 6.06ZM39.1859 14.4C39.1859 14.3733 39.0926 13.8133 38.9059 12.72C38.6659 11.32 38.4326 10.2267 38.2059 9.44C37.8726 8.24 37.4993 7.38667 37.0859 6.88C36.8593 6.62667 36.6326 6.47333 36.4059 6.42C36.1526 6.35333 35.8793 6.40667 35.5859 6.58C35.2793 6.74 35.0126 7.00667 34.7859 7.38C34.5726 7.75333 34.4193 8.14667 34.3259 8.56C34.0993 9.54667 34.0659 10.42 34.2259 11.18C34.3726 11.9533 34.6859 12.6067 35.1659 13.14C35.6059 13.6467 36.1726 14.0133 36.8659 14.24C37.5593 14.4667 38.3326 14.52 39.1859 14.4ZM39.5659 1.82C39.5126 4.03333 39.5526 6.81333 39.6859 10.16C39.7393 11.36 39.7859 12.2933 39.8259 12.96C39.8659 13.6267 39.9126 14.1333 39.9659 14.48C39.9659 14.5067 39.9793 14.5933 40.0059 14.74C40.0193 14.8067 40.0259 14.8467 40.0259 14.86V14.92C40.0393 14.96 40.0393 14.9933 40.0259 15.02C39.9859 15.14 39.9059 15.22 39.7859 15.26C39.6526 15.3133 39.5326 15.2867 39.4259 15.18C39.3993 15.1533 39.3793 15.1267 39.3659 15.1C38.3793 15.2467 37.4726 15.1933 36.6459 14.94C35.8326 14.6733 35.1593 14.2333 34.6259 13.62C34.0659 12.98 33.6926 12.2133 33.5059 11.32C33.3326 10.4133 33.3659 9.44 33.6059 8.4C33.7259 7.90667 33.9193 7.43333 34.1859 6.98C34.4659 6.51333 34.8126 6.16667 35.2259 5.94C35.6926 5.68667 36.1393 5.61333 36.5659 5.72C36.9526 5.81333 37.3059 6.04667 37.6259 6.42C38.1193 6.99333 38.5459 7.93333 38.9059 9.24L38.9259 9.34C38.8193 6.39333 38.7926 3.88667 38.8459 1.82C38.8459 1.71333 38.8793 1.62667 38.9459 1.56C39.0259 1.49333 39.1126 1.46 39.2059 1.46C39.3126 1.46 39.3993 1.5 39.4659 1.58C39.5326 1.64667 39.5659 1.72667 39.5659 1.82ZM41.3144 9.44C41.9544 9.66667 42.5544 9.64667 43.1144 9.38C43.701 9.08667 44.1477 8.6 44.4544 7.92C44.7477 7.28 44.821 6.72667 44.6744 6.26C44.541 5.84667 44.221 5.67333 43.7144 5.74C43.0477 5.82 42.4677 6.34 41.9744 7.3C41.6677 7.92667 41.4477 8.64 41.3144 9.44ZM40.6144 9.28C40.761 8.41333 41.001 7.64667 41.3344 6.98C41.9344 5.79333 42.701 5.14 43.6344 5.02C44.0744 4.96667 44.441 5.03333 44.7344 5.22C45.041 5.40667 45.2544 5.68 45.3744 6.04C45.5744 6.68 45.4877 7.40667 45.1144 8.22C44.7277 9.06 44.1677 9.66 43.4344 10.02C42.741 10.3533 42.0077 10.4067 41.2344 10.18C41.221 10.3 41.2144 10.4267 41.2144 10.56C41.1744 11.8133 41.381 12.8133 41.8344 13.56C42.3144 14.3333 43.0077 14.6467 43.9144 14.5C44.4344 14.42 44.921 14.18 45.3744 13.78C45.8277 13.38 46.2144 12.8933 46.5344 12.32C46.5877 12.24 46.661 12.1867 46.7544 12.16C46.8477 12.1333 46.9344 12.1467 47.0144 12.2C47.1077 12.24 47.1677 12.3067 47.1944 12.4C47.221 12.4933 47.2144 12.5867 47.1744 12.68C46.801 13.3067 46.3477 13.86 45.8144 14.34C45.281 14.82 44.6877 15.1133 44.0344 15.22C42.7944 15.4067 41.8544 14.98 41.2144 13.94C40.681 13.0733 40.441 11.94 40.4944 10.54C40.4944 10.3133 40.5077 10.0867 40.5344 9.86C40.401 9.74 40.3744 9.6 40.4544 9.44C40.4944 9.36 40.5477 9.30667 40.6144 9.28ZM53.7948 9.44C54.4348 9.66667 55.0348 9.64667 55.5948 9.38C56.1815 9.08667 56.6282 8.6 56.9348 7.92C57.2282 7.28 57.3015 6.72667 57.1548 6.26C57.0215 5.84667 56.7015 5.67333 56.1948 5.74C55.5282 5.82 54.9482 6.34 54.4548 7.3C54.1482 7.92667 53.9282 8.64 53.7948 9.44ZM53.0948 9.28C53.2415 8.41333 53.4815 7.64667 53.8148 6.98C54.4148 5.79333 55.1815 5.14 56.1148 5.02C56.5548 4.96667 56.9215 5.03333 57.2148 5.22C57.5215 5.40667 57.7348 5.68 57.8548 6.04C58.0548 6.68 57.9682 7.40667 57.5948 8.22C57.2082 9.06 56.6482 9.66 55.9148 10.02C55.2215 10.3533 54.4882 10.4067 53.7148 10.18C53.7015 10.3 53.6948 10.4267 53.6948 10.56C53.6548 11.8133 53.8615 12.8133 54.3148 13.56C54.7948 14.3333 55.4882 14.6467 56.3948 14.5C56.9148 14.42 57.4015 14.18 57.8548 13.78C58.3082 13.38 58.6948 12.8933 59.0148 12.32C59.0682 12.24 59.1415 12.1867 59.2348 12.16C59.3282 12.1333 59.4148 12.1467 59.4948 12.2C59.5882 12.24 59.6482 12.3067 59.6748 12.4C59.7015 12.4933 59.6948 12.5867 59.6548 12.68C59.2815 13.3067 58.8282 13.86 58.2948 14.34C57.7615 14.82 57.1682 15.1133 56.5148 15.22C55.2748 15.4067 54.3348 14.98 53.6948 13.94C53.1615 13.0733 52.9215 11.94 52.9748 10.54C52.9748 10.3133 52.9882 10.0867 53.0148 9.86C52.8815 9.74 52.8548 9.6 52.9348 9.44C52.9748 9.36 53.0282 9.30667 53.0948 9.28ZM61.1191 9.6C61.4791 8.53333 61.9057 7.60667 62.3991 6.82C62.8524 6.1 63.3191 5.60667 63.7991 5.34C64.4391 4.98 65.0524 5.04 65.6391 5.52C66.0657 5.85333 66.3924 6.46667 66.6191 7.36C66.7924 8.04 66.9124 8.91333 66.9791 9.98C67.0057 10.5133 67.0191 11.0867 67.0191 11.7C67.0324 12.3133 67.0324 12.9467 67.0191 13.6C67.0057 14.24 66.9991 14.6333 66.9991 14.78C66.9991 14.8733 66.9591 14.9533 66.8791 15.02C66.8124 15.1 66.7324 15.14 66.6391 15.14C66.5457 15.14 66.4591 15.1 66.3791 15.02C66.3124 14.9533 66.2791 14.8733 66.2791 14.78C66.2791 14.6333 66.2857 14.24 66.2991 13.6C66.3124 12.96 66.3124 12.34 66.2991 11.74C66.2991 11.14 66.2857 10.5667 66.2591 10.02C66.1924 9.00667 66.0791 8.18 65.9191 7.54C65.7324 6.80667 65.4924 6.32 65.1991 6.08C64.8524 5.81333 64.4991 5.78 64.1391 5.98C63.7791 6.18 63.4057 6.59333 63.0191 7.22C62.6991 7.72667 62.4124 8.29333 62.1591 8.92C61.9057 9.53333 61.7257 10.0333 61.6191 10.42C61.5524 10.6867 61.4924 10.96 61.4391 11.24C61.3857 11.52 61.3457 11.8333 61.3191 12.18C61.2924 12.5133 61.2657 12.78 61.2391 12.98C61.2257 13.18 61.2057 13.5 61.1791 13.94C61.1657 14.3667 61.1524 14.6533 61.1391 14.8C61.1391 14.8533 61.1324 14.8933 61.1191 14.92V14.96C61.1057 14.9867 61.0991 15.0133 61.0991 15.04C61.0324 15.16 60.9391 15.2267 60.8191 15.24C60.6457 15.2533 60.5257 15.1867 60.4591 15.04L60.4191 14.96C60.4191 14.9467 60.4124 14.9267 60.3991 14.9V14.66V13.72V11.96C60.3991 9.09333 60.3591 7.15333 60.2791 6.14C60.2657 6.04667 60.2924 5.96667 60.3591 5.9C60.4257 5.82 60.5057 5.77333 60.5991 5.76C60.7057 5.74667 60.7924 5.77333 60.8591 5.84C60.9391 5.90667 60.9857 5.99333 60.9991 6.1C61.0791 7.04667 61.1191 8.21333 61.1191 9.6ZM74.8172 1.36C74.8972 1.48 75.0305 1.70667 75.2172 2.04L75.8972 3.28L76.6372 4.62C77.0905 5.39333 77.4639 5.99333 77.7572 6.42C77.9172 6.67333 78.0572 6.86667 78.1772 7L78.2772 7.1C78.3039 7.07333 78.3372 7.04667 78.3772 7.02C78.5105 6.91333 78.6639 6.74 78.8372 6.5C79.1705 6.07333 79.5772 5.46667 80.0572 4.68C80.5372 3.92 81.1905 2.78 82.0172 1.26C82.0705 1.16667 82.1505 1.10667 82.2572 1.08C82.2972 1.06667 82.3439 1.06 82.3972 1.06C82.5039 1.06 82.5905 1.1 82.6572 1.18C82.7239 1.24667 82.7572 1.32667 82.7572 1.42C82.6905 2.16667 82.6839 4.43333 82.7372 8.22C82.7905 12.0067 82.8172 14.2733 82.8172 15.02C82.8172 15.1133 82.7772 15.1933 82.6972 15.26C82.6305 15.34 82.5505 15.38 82.4572 15.38C82.3639 15.38 82.2772 15.34 82.1972 15.26C82.1305 15.1933 82.0972 15.1133 82.0972 15.02C82.0972 14.0067 82.0772 12.1 82.0372 9.3C81.9972 6.48667 81.9905 4.31333 82.0172 2.78C81.5239 3.66 81.0772 4.42 80.6772 5.06C80.1839 5.87333 79.7639 6.5 79.4172 6.94C79.2039 7.22 79.0172 7.42667 78.8572 7.56C78.6172 7.77333 78.3905 7.86667 78.1772 7.84C78.0172 7.81333 77.8372 7.69333 77.6372 7.48C77.5039 7.32 77.3439 7.10667 77.1572 6.84C76.8505 6.38667 76.4705 5.76 76.0172 4.96L74.7972 2.78C74.7705 4.32667 74.7772 6.52 74.8172 9.36C74.8572 12.2 74.8772 14.12 74.8772 15.12C74.8772 15.2133 74.8372 15.2933 74.7572 15.36C74.6905 15.44 74.6105 15.48 74.5172 15.48C74.4239 15.48 74.3372 15.44 74.2572 15.36C74.1905 15.2933 74.1572 15.2133 74.1572 15.12C74.1572 14.3733 74.1305 12.1067 74.0772 8.32C74.0239 4.52 74.0305 2.25333 74.0972 1.52C74.0972 1.41333 74.1305 1.32667 74.1972 1.26C74.2772 1.19333 74.3639 1.16 74.4572 1.16C74.5505 1.16 74.6239 1.18667 74.6772 1.24C74.7439 1.26667 74.7905 1.30667 74.8172 1.36ZM84.4231 5.72C84.1031 7.89333 83.9365 9.52 83.9231 10.6C83.9098 11.68 84.0098 12.52 84.2231 13.12C84.4365 13.76 84.7565 14.1067 85.1831 14.16C85.6231 14.2133 86.0231 14.0533 86.3831 13.68C86.7165 13.32 87.0231 12.7867 87.3031 12.08C87.7298 10.9333 87.9831 9.71333 88.0631 8.42C88.0898 7.94 88.1031 7.37333 88.1031 6.72V6.38V6.16V5.98V5.92V5.86L88.1431 5.78C88.2098 5.64667 88.3165 5.58 88.4631 5.58C88.5965 5.58 88.6965 5.64 88.7631 5.76C88.7898 5.78667 88.8031 5.81333 88.8031 5.84C88.8165 5.85333 88.8231 5.87333 88.8231 5.9C88.8231 5.92667 88.8298 5.96 88.8431 6V6.24C88.8565 6.45333 88.8698 6.78 88.8831 7.22C88.9098 8.1 88.9431 9.32667 88.9831 10.9C88.9831 11.14 88.9965 11.5867 89.0231 12.24C89.0631 12.88 89.0898 13.4133 89.1031 13.84C89.1165 14.2533 89.1031 14.74 89.0631 15.3C89.0365 15.86 88.9698 16.3467 88.8631 16.76C88.6098 17.8 88.1231 18.5133 87.4031 18.9C86.5898 19.3267 85.4965 19.32 84.1231 18.88C84.0165 18.8533 83.9431 18.7933 83.9031 18.7C83.8631 18.62 83.8565 18.5267 83.8831 18.42C83.9098 18.3267 83.9631 18.26 84.0431 18.22C84.1365 18.18 84.2298 18.1733 84.3231 18.2C85.5231 18.5733 86.4365 18.5933 87.0631 18.26C87.5965 17.98 87.9631 17.42 88.1631 16.58C88.2298 16.3 88.2831 15.9933 88.3231 15.66C88.3631 15.34 88.3831 14.98 88.3831 14.58C88.3831 14.1667 88.3765 13.8267 88.3631 13.56C88.3631 13.28 88.3498 12.8933 88.3231 12.4C88.2965 11.8933 88.2831 11.5533 88.2831 11.38C88.1898 11.7133 88.0831 12.0333 87.9631 12.34C87.6698 13.14 87.3165 13.7533 86.9031 14.18C86.3698 14.7267 85.7698 14.96 85.1031 14.88C84.3698 14.7867 83.8431 14.28 83.5231 13.36C83.2965 12.6667 83.1898 11.7467 83.2031 10.6C83.2165 9.49333 83.3831 7.82667 83.7031 5.6C83.7165 5.50667 83.7631 5.43333 83.8431 5.38C83.9231 5.31333 84.0098 5.28667 84.1031 5.3C84.2098 5.31333 84.2898 5.36 84.3431 5.44C84.4098 5.52 84.4365 5.61333 84.4231 5.72ZM90.1108 14.76V14.44V14.26C90.0974 14.2333 90.0908 14.2067 90.0908 14.18V14.16V14.14V14.12V14.1V14.08V14.04V14V13.4C90.0908 13.1467 90.0841 12.7 90.0708 12.06C90.0708 11.4067 90.0708 10.9067 90.0708 10.56C90.0841 9.85333 90.1108 8.75333 90.1508 7.26C90.1508 7.16667 90.1841 7.08667 90.2508 7.02C90.3308 6.95333 90.4174 6.92 90.5108 6.92C90.6174 6.92 90.7041 6.96 90.7708 7.04C90.8374 7.10667 90.8708 7.19333 90.8708 7.3C90.8441 8.27333 90.8241 8.98 90.8108 9.42L90.8508 9.3C91.5708 7.15333 92.7441 5.72 94.3708 5C94.4508 4.96 94.5374 4.96 94.6308 5C94.7241 5.02667 94.7908 5.08667 94.8308 5.18C94.8708 5.26 94.8708 5.34667 94.8308 5.44C94.8041 5.53333 94.7441 5.6 94.6508 5.64C93.1974 6.29333 92.1574 7.58667 91.5308 9.52C91.0908 10.8933 90.8574 12.58 90.8308 14.58V14.6V14.66V14.76V14.82V14.88V14.9V14.92V14.94C90.8308 14.9533 90.8241 14.9667 90.8108 14.98C90.8108 15.02 90.7908 15.0667 90.7508 15.12C90.6841 15.2 90.5974 15.24 90.4908 15.24C90.3708 15.2533 90.2708 15.2133 90.1908 15.12C90.1508 15.0667 90.1308 15.02 90.1308 14.98C90.1174 14.9667 90.1108 14.9467 90.1108 14.92V14.9V14.86V14.76ZM98.0428 5.92C97.4295 6.29333 96.9228 6.94667 96.5228 7.88C96.1228 8.8 95.9028 9.78 95.8628 10.82C95.8228 11.94 95.9961 12.8267 96.3828 13.48C96.7828 14.1733 97.3828 14.4867 98.1828 14.42C98.9161 14.3667 99.5495 13.9467 100.083 13.16C100.629 12.4 100.936 11.4867 101.003 10.42C101.083 9.31333 100.876 8.34667 100.383 7.52C99.8895 6.69333 99.1095 6.16 98.0428 5.92ZM98.3428 5.26C99.1828 5.46 99.8695 5.84667 100.403 6.42C100.949 6.98 101.323 7.6 101.523 8.28C101.709 8.97333 101.776 9.7 101.723 10.46C101.643 11.6467 101.283 12.7067 100.643 13.64C100.016 14.56 99.2095 15.06 98.2228 15.14C97.1428 15.2333 96.3228 14.8067 95.7628 13.86C95.2961 13.0867 95.0895 12.0667 95.1428 10.8C95.1828 9.6 95.4561 8.46667 95.9628 7.4C96.4561 6.30667 97.1095 5.56667 97.9228 5.18C98.0828 5.1 98.2228 5.12667 98.3428 5.26ZM103.209 9.6C103.569 8.53333 103.996 7.60667 104.489 6.82C104.942 6.1 105.409 5.60667 105.889 5.34C106.529 4.98 107.142 5.04 107.729 5.52C108.156 5.85333 108.482 6.46667 108.709 7.36C108.882 8.04 109.002 8.91333 109.069 9.98C109.096 10.5133 109.109 11.0867 109.109 11.7C109.122 12.3133 109.122 12.9467 109.109 13.6C109.096 14.24 109.089 14.6333 109.089 14.78C109.089 14.8733 109.049 14.9533 108.969 15.02C108.902 15.1 108.822 15.14 108.729 15.14C108.636 15.14 108.549 15.1 108.469 15.02C108.402 14.9533 108.369 14.8733 108.369 14.78C108.369 14.6333 108.376 14.24 108.389 13.6C108.402 12.96 108.402 12.34 108.389 11.74C108.389 11.14 108.376 10.5667 108.349 10.02C108.282 9.00667 108.169 8.18 108.009 7.54C107.822 6.80667 107.582 6.32 107.289 6.08C106.942 5.81333 106.589 5.78 106.229 5.98C105.869 6.18 105.496 6.59333 105.109 7.22C104.789 7.72667 104.502 8.29333 104.249 8.92C103.996 9.53333 103.816 10.0333 103.709 10.42C103.642 10.6867 103.582 10.96 103.529 11.24C103.476 11.52 103.436 11.8333 103.409 12.18C103.382 12.5133 103.356 12.78 103.329 12.98C103.316 13.18 103.296 13.5 103.269 13.94C103.256 14.3667 103.242 14.6533 103.229 14.8C103.229 14.8533 103.222 14.8933 103.209 14.92V14.96C103.196 14.9867 103.189 15.0133 103.189 15.04C103.122 15.16 103.029 15.2267 102.909 15.24C102.736 15.2533 102.616 15.1867 102.549 15.04L102.509 14.96C102.509 14.9467 102.502 14.9267 102.489 14.9V14.66V13.72V11.96C102.489 9.09333 102.449 7.15333 102.369 6.14C102.356 6.04667 102.382 5.96667 102.449 5.9C102.516 5.82 102.596 5.77333 102.689 5.76C102.796 5.74667 102.882 5.77333 102.949 5.84C103.029 5.90667 103.076 5.99333 103.089 6.1C103.169 7.04667 103.209 8.21333 103.209 9.6Z" fill="#424242"/>
</svg>
