<svg width="23" height="30" viewBox="0 0 23 30" fill="none" xmlns="http://www.w3.org/2000/svg">
<mask id="mask0_47_993" style="mask-type:luminance" maskUnits="userSpaceOnUse" x="0" y="0" width="23" height="30">
<path d="M0 0H22.4276V29.51H0V0Z" fill="white"/>
</mask>
<g mask="url(#mask0_47_993)">
<path d="M11.6518 0.254141C11.429 0.00515041 10.9986 0.00515041 10.7758 0.254141C10.3362 0.743669 0.0222778 12.3064 0.0222778 18.3183C0.0222778 24.4892 5.04282 29.5098 11.2138 29.5098C17.3848 29.5098 22.4053 24.4892 22.4053 18.3183C22.4053 12.3064 12.0906 0.743669 11.6518 0.254141ZM11.2138 28.3317C5.6922 28.3317 1.20037 23.8399 1.20037 18.3183C-1.49994 23.5 9.66837 31.2924 11.6518 29C13.6353 31.2916 24.5001 23 21.2272 18.3183C21.2272 23.8399 16.7354 28.3317 11.2138 28.3317Z" fill="#4FBBFF"/>
</g>
<path d="M11.2138 23.6194C8.29119 23.6194 5.91271 21.2417 5.91271 18.3184C5.91271 17.9925 5.64835 17.7297 5.32328 17.7297C4.99821 17.7297 4.73462 17.9925 4.73462 18.3184C4.73462 21.8911 7.64105 24.7975 11.2138 24.7975C11.5388 24.7975 11.8024 24.5347 11.8024 24.2089C11.8024 23.883 11.5388 23.6194 11.2138 23.6194Z" fill="#171B1C"/>
</svg>
