<svg width="45" height="45" viewBox="0 0 45 45" fill="none" xmlns="http://www.w3.org/2000/svg">
<g clip-path="url(#clip0_47_1341)">
<path d="M26.0849 33.7603C28.5123 34.5915 30.6557 35.121 33.7353 36.0674C32.5522 51.0164 18.4162 45.0797 26.0849 33.7603ZM38.7061 20.0276C38.5467 15.5391 37.7561 9.65104 31.4587 10.5736C28.5066 11.3441 26.3254 14.5862 25.2995 20.1798C24.7361 23.2553 25.0637 27.5723 25.7283 30.1601C26.3352 31.9837 26.1288 31.8716 26.781 32.2179C29.3054 32.7866 31.8045 33.4161 34.3494 34.058C36.9347 32.2323 39.0581 22.5396 38.7061 20.0276ZM19.2717 19.6831C19.9358 17.095 20.2635 12.7781 19.7003 9.7029C18.6752 4.109 16.4937 0.86638 13.5411 0.0964723C7.24366 -0.826125 6.45306 5.0618 6.29365 9.55065C5.94174 12.0621 8.06533 21.7555 10.6509 23.5809C13.1957 22.939 15.6944 22.3099 18.2196 21.7407C18.871 21.3948 18.6646 21.5068 19.2717 19.6831ZM11.2642 25.5907C12.4469 40.5396 26.5829 34.6029 18.9144 23.2836C16.487 24.115 14.3438 24.6444 11.2642 25.5907Z" fill="#D1BEAB"/>
</g>
<defs>
<clipPath id="clip0_47_1341">
<rect width="45" height="45" fill="white"/>
</clipPath>
</defs>
</svg>
