<svg width="21" height="29" viewBox="0 0 21 29" fill="none" xmlns="http://www.w3.org/2000/svg">
<path d="M12.6048 21.4281C14.0958 21.9387 15.4123 22.2639 17.3038 22.8452C16.5772 32.0272 7.89456 28.3807 12.6048 21.4281ZM20.357 12.9933C20.2591 10.2363 19.7735 6.61979 15.9055 7.18647C14.0923 7.65968 12.7525 9.65103 12.1224 13.0867C11.7763 14.9758 11.9776 17.6273 12.3858 19.2168C12.7585 20.3369 12.6318 20.2681 13.0324 20.4808C14.5829 20.8301 16.1179 21.2167 17.681 21.611C19.269 20.4896 20.5732 14.5361 20.357 12.9933ZM8.42005 12.7817C8.82795 11.192 9.02919 8.54047 8.68328 6.65164C8.05365 3.21577 6.71375 1.22409 4.90021 0.751201C1.03219 0.184526 0.546594 3.801 0.448681 6.55813C0.232531 8.10072 1.53688 14.0546 3.125 15.1757C4.68802 14.7815 6.22279 14.3951 7.7738 14.0455C8.17393 13.833 8.04716 13.9018 8.42005 12.7817ZM3.50169 16.4102C4.22811 25.5921 12.9107 21.9457 8.20058 14.9932C6.70962 15.5038 5.3932 15.829 3.50169 16.4102Z" fill="white"/>
</svg>
