<svg width="121" height="49" viewBox="0 0 121 49" fill="none" xmlns="http://www.w3.org/2000/svg">
<path d="M1.4 12.5H20.965L22.015 18.1C21.525 17.3767 20.9767 16.7 20.37 16.07C19.7867 15.4167 19.1683 14.8567 18.515 14.39C17.8617 13.9233 17.1967 13.55 16.52 13.27C15.8667 12.99 15.2133 12.85 14.56 12.85H12.915V34.375C12.915 35.355 13.055 36.0083 13.335 36.335C13.615 36.6617 13.9533 36.825 14.35 36.825V37H7.98V36.825C8.37667 36.825 8.715 36.6617 8.995 36.335C9.275 36.0083 9.415 35.355 9.415 34.375V12.85H7.805C7.33833 12.85 6.77833 12.955 6.125 13.165C5.47167 13.3517 4.795 13.6433 4.095 14.04C3.41833 14.4133 2.74167 14.8917 2.065 15.475C1.41167 16.035 0.84 16.6767 0.35 17.4L1.4 12.5ZM22.3699 24.365C22.3699 22.825 22.6033 21.32 23.0699 19.85C23.5599 18.38 24.2716 17.085 25.2049 15.965C26.1616 14.8217 27.3516 13.9 28.7749 13.2C30.2216 12.5 31.9133 12.15 33.8499 12.15C35.6466 12.15 37.2333 12.5233 38.6099 13.27C39.9866 14.0167 41.1416 14.9967 42.0749 16.21C43.0316 17.4233 43.7549 18.8 44.2449 20.34C44.7583 21.88 45.0266 23.455 45.0499 25.065C45.0733 26.605 44.8633 28.1217 44.4199 29.615C43.9999 31.085 43.3233 32.3917 42.3899 33.535C41.4799 34.6783 40.3133 35.6 38.8899 36.3C37.4666 37 35.7866 37.35 33.8499 37.35C31.9599 37.35 30.2916 36.9767 28.8449 36.23C27.4216 35.4833 26.2316 34.5033 25.2749 33.29C24.3183 32.0533 23.5949 30.665 23.1049 29.125C22.6149 27.5617 22.3699 25.975 22.3699 24.365ZM35.9849 36.545C37.1049 36.545 38.0616 36.335 38.8549 35.915C39.6483 35.4717 40.3016 34.8883 40.8149 34.165C41.3283 33.4183 41.7016 32.555 41.9349 31.575C42.1916 30.595 42.3199 29.545 42.3199 28.425C42.3199 27.2817 42.2033 26.115 41.9699 24.925C41.7366 23.7117 41.3983 22.5333 40.9549 21.39C40.5349 20.2467 40.0099 19.1733 39.3799 18.17C38.7499 17.1433 38.0383 16.245 37.2449 15.475C36.4516 14.705 35.5883 14.0983 34.6549 13.655C33.7216 13.2117 32.7416 12.99 31.7149 12.99C30.6183 12.99 29.6733 13.1883 28.8799 13.585C28.0866 13.9817 27.4216 14.53 26.8849 15.23C26.3716 15.9067 25.9749 16.7117 25.6949 17.645C25.4383 18.5783 25.2866 19.57 25.2399 20.62C25.1933 21.7633 25.2749 22.9533 25.4849 24.19C25.7183 25.4267 26.0449 26.64 26.4649 27.83C26.9083 28.9967 27.4449 30.105 28.0749 31.155C28.7283 32.205 29.4516 33.1383 30.2449 33.955C31.0616 34.7483 31.9483 35.3783 32.9049 35.845C33.8849 36.3117 34.9116 36.545 35.9849 36.545ZM46.8166 12.5H57.9466C59.7666 12.5 61.3416 12.85 62.6716 13.55C64.0249 14.25 65.1333 15.1717 65.9966 16.315C66.8599 17.4583 67.4783 18.765 67.8516 20.235C68.2483 21.705 68.3999 23.21 68.3066 24.75C68.2366 26.2667 67.9216 27.76 67.3616 29.23C66.8016 30.7 66.0083 32.0067 64.9816 33.15C63.9783 34.2933 62.7416 35.2267 61.2716 35.95C59.8016 36.65 58.1099 37 56.1966 37H46.8166V36.825C47.2133 36.825 47.5516 36.6617 47.8316 36.335C48.1116 36.0083 48.2516 35.355 48.2516 34.375V15.125C48.2516 14.145 48.1116 13.4917 47.8316 13.165C47.5516 12.8383 47.2133 12.675 46.8166 12.675V12.5ZM51.7516 33.675C51.7516 34.165 51.8216 34.5967 51.9616 34.97C52.1016 35.3433 52.2766 35.6583 52.4866 35.915C52.6966 36.1483 52.9183 36.335 53.1516 36.475C53.4083 36.5917 53.6416 36.65 53.8516 36.65H56.6166C58.2033 36.65 59.5449 36.3117 60.6416 35.635C61.7616 34.935 62.6599 34.0367 63.3366 32.94C64.0133 31.82 64.4799 30.5483 64.7366 29.125C65.0166 27.6783 65.0983 26.22 64.9816 24.75C64.8649 23.2567 64.5733 21.7983 64.1066 20.375C63.6399 18.9517 63.0099 17.68 62.2166 16.56C61.4466 15.44 60.5133 14.5417 59.4166 13.865C58.3433 13.1883 57.1416 12.85 55.8116 12.85H51.7516V33.675ZM67.9916 36.825C68.3883 36.825 68.7966 36.6617 69.2166 36.335C69.6366 36.0083 70.0449 35.355 70.4416 34.375L79.3666 12.5H80.1016L88.6766 34.375C89.0733 35.355 89.4816 36.0083 89.9016 36.335C90.3216 36.6617 90.7299 36.825 91.1266 36.825V37H84.5816V36.825C84.9783 36.825 85.2466 36.6617 85.3866 36.335C85.5266 36.0083 85.3983 35.355 85.0016 34.375L83.0766 29.475H72.8216L70.8266 34.375C70.4299 35.355 70.3016 36.0083 70.4416 36.335C70.5816 36.6617 70.8499 36.825 71.2466 36.825V37H67.9916V36.825ZM82.9366 29.125L78.0716 16.665L72.9616 29.125H82.9366ZM86.2094 12.675V12.5H92.8944V12.675C92.4977 12.675 92.2294 12.7683 92.0894 12.955C91.9494 13.1417 92.0777 13.55 92.4744 14.18L99.4394 25.205L106.509 14.18C106.906 13.55 107.034 13.1417 106.894 12.955C106.754 12.7683 106.486 12.675 106.089 12.675V12.5H109.344V12.675C108.948 12.675 108.539 12.7683 108.119 12.955C107.699 13.1417 107.291 13.55 106.894 14.18L99.5444 25.66V34.375C99.5444 35.355 99.6844 36.0083 99.9644 36.335C100.244 36.6617 100.583 36.825 100.979 36.825V37H94.6094V36.825C95.006 36.825 95.3444 36.6617 95.6244 36.335C95.9044 36.0083 96.0444 35.355 96.0444 34.375V25.835L88.6594 14.18C88.2627 13.55 87.8544 13.1417 87.4344 12.955C87.0144 12.7683 86.606 12.675 86.2094 12.675Z" fill="#636457"/>
</svg>
